<?xml version="1.0" encoding="UTF-8"?>
<svg version="1.1" xmlns="http://www.w3.org/2000/svg" width="406" height="340">
<path d="M0 0 C1.27272766 -0.00472824 1.27272766 -0.00472824 2.57116699 -0.009552 C3.49192017 -0.00752777 4.41267334 -0.00550354 5.36132812 -0.00341797 C6.78644714 -0.00485306 6.78644714 -0.00485306 8.24035645 -0.00631714 C10.25789455 -0.00699888 12.27543484 -0.00514502 14.29296875 -0.00097656 C17.35226517 0.00432468 20.41141158 -0.00089714 23.47070312 -0.00732422 C25.43424511 -0.00666251 27.39778701 -0.00537945 29.36132812 -0.00341797 C30.26588745 -0.0054422 31.17044678 -0.00746643 32.10241699 -0.009552 C38.08623456 0.01203653 43.95027783 0.42936705 49.89257812 1.12939453 C49.89257812 2.44939453 49.89257812 3.76939453 49.89257812 5.12939453 C49.21453125 5.27634766 48.53648437 5.42330078 47.83789062 5.57470703 C36.54205627 8.29697182 27.03316784 13.83750212 19.83007812 23.06689453 C16.36929192 27.39575169 12.75996887 31.47689979 8.95507812 35.50439453 C4.54956842 40.19249564 0.53646971 45.03637426 -3.31811523 50.18359375 C-6.4251023 54.31016722 -9.71583518 58.23439439 -13.10742188 62.12939453 C-17.75488333 67.47669516 -22.11136003 72.95224923 -26.36914062 78.61767578 C-28.45070075 81.34105688 -30.64116892 83.94926052 -32.87695312 86.54736328 C-33.52486816 87.30686279 -34.1727832 88.0663623 -34.84033203 88.84887695 C-36.123079 90.34552189 -37.41802051 91.83181812 -38.72607422 93.30639648 C-42.12445616 97.07662751 -42.12445616 97.07662751 -43.21289062 101.82861328 C-41.94569985 104.46598207 -40.52241447 106.62221024 -38.73242188 108.94189453 C-35.08817732 113.79205274 -31.56013525 118.70321087 -28.10742188 123.69189453 C-27.6145166 124.39483643 -27.12161133 125.09777832 -26.61376953 125.82202148 C-23.10742188 130.89562846 -23.10742188 130.89562846 -23.10742188 133.12939453 C-19.92902606 131.54019663 -19.46572247 128.28180888 -18.30664062 125.09814453 C-18.03408951 124.36794601 -17.76153839 123.6377475 -17.48072815 122.88542175 C-16.88974727 121.30056058 -16.30185834 119.71454385 -15.7166748 118.12753296 C-14.15285528 113.88926312 -12.56425368 109.66028262 -10.97851562 105.43017578 C-10.49350082 104.13379936 -10.49350082 104.13379936 -9.99868774 102.81123352 C-3.13002763 84.4814067 4.11499072 66.28661727 11.58007812 48.19189453 C11.99032227 47.19053467 12.40056641 46.1891748 12.82324219 45.1574707 C13.20061523 44.25230713 13.57798828 43.34714355 13.96679688 42.41455078 C14.45539185 41.23711304 14.45539185 41.23711304 14.95385742 40.03588867 C15.89257812 38.12939453 15.89257812 38.12939453 17.89257812 36.12939453 C19.85745239 36.18989563 19.85745239 36.18989563 21.89257812 37.12939453 C23.24435425 39.28141785 23.24435425 39.28141785 24.45458984 42.16137695 C24.91541962 43.23727585 25.37624939 44.31317474 25.8510437 45.42167664 C26.33654694 46.59752823 26.82205017 47.77337982 27.32226562 48.98486328 C27.83508087 50.19322342 28.34789612 51.40158356 28.87625122 52.64656067 C30.24522245 55.87269076 31.59595755 59.10615271 32.94299316 62.3414917 C34.2945352 65.57929021 35.66242033 68.81015653 37.02929688 72.04150391 C39.51754953 77.9288924 41.99245486 83.82169773 44.44818115 89.7227478 C45.48033128 92.15709994 46.53277289 94.57265129 47.61676025 96.98355103 C47.89955904 97.61985852 48.18235783 98.25616602 48.47372627 98.91175556 C49.26823953 100.69473326 50.07281853 102.47321557 50.87796021 104.25141907 C51.89257812 107.12939453 51.89257812 107.12939453 50.89257812 110.12939453 C48.59488001 112.02265089 46.31000774 113.77774202 43.89257812 115.50439453 C43.21573975 115.99464111 42.53890137 116.4848877 41.84155273 116.98999023 C37.03548821 120.42698855 32.16473849 123.44706733 26.89257812 126.12939453 C22.83240751 119.60618202 20.1124413 112.62415906 17.26757812 105.50439453 C16.77773437 104.29009766 16.28789062 103.07580078 15.78320312 101.82470703 C14.48132484 98.59491063 13.18522497 95.3628944 11.89257812 92.12939453 C11.51182129 91.17758301 11.13106445 90.22577148 10.73876953 89.24511719 C10.45952637 88.54692871 10.1802832 87.84874023 9.89257812 87.12939453 C7.15695621 93.12293489 4.66301507 99.16410216 2.36132812 105.33642578 C2.04353394 106.18307297 1.72573975 107.02972015 1.39831543 107.90202332 C0.73149983 109.6805224 0.06602919 111.4595263 -0.59814453 113.23901367 C-1.60144254 115.92588166 -2.60996423 118.61074534 -3.61914062 121.29541016 C-9.95507103 135.39821753 -9.95507103 135.39821753 -13.10742188 150.12939453 C-24.82617188 155.98876953 -24.82617188 155.98876953 -26.95898438 157.04541016 C-28.42269052 157.78391644 -29.875641 158.54404284 -31.31835938 159.32275391 C-32.0221875 159.69722656 -32.72601563 160.07169922 -33.45117188 160.45751953 C-34.08216797 160.80202148 -34.71316406 161.14652344 -35.36328125 161.50146484 C-37.10742188 162.12939453 -37.10742188 162.12939453 -40.10742188 161.12939453 C-40.10742188 160.46939453 -40.10742188 159.80939453 -40.10742188 159.12939453 C-40.76742187 159.12939453 -41.42742187 159.12939453 -42.10742188 159.12939453 C-43.8011222 156.89272288 -45.37096933 154.65178898 -46.91992188 152.31689453 C-47.90792037 150.85055814 -48.89621443 149.38442087 -49.88476562 147.91845703 C-50.4066748 147.14018555 -50.92858398 146.36191406 -51.46630859 145.56005859 C-53.14219049 143.0778985 -54.84155813 140.6134932 -56.54882812 138.15283203 C-57.12076904 137.32630127 -57.69270996 136.49977051 -58.28198242 135.64819336 C-59.38654828 134.05263887 -60.49335656 132.45863359 -61.6027832 130.86645508 C-65.10327135 125.78315656 -68.20736334 120.57728104 -71.10742188 115.12939453 C-65.60395293 107.90250107 -60.03712367 100.75119091 -54.25585938 93.74267578 C-52.1837246 91.2222064 -50.14081153 88.68117799 -48.10742188 86.12939453 C-43.1079901 79.86278005 -38.02345376 73.6661917 -32.92382812 67.48095703 C-28.3448054 61.91430195 -23.84791223 56.29140939 -19.41357422 50.609375 C-16.96674837 47.47828899 -14.49837025 44.36865234 -11.98632812 41.28955078 C0.32215695 27.79502471 0.32215695 27.79502471 4.89257812 11.12939453 C2.38669813 7.56041393 0.81936653 6.35671999 -3.41992188 5.31689453 C-4.30679688 5.25501953 -5.19367188 5.19314453 -6.10742188 5.12939453 C-6.10742188 3.80939453 -6.10742188 2.48939453 -6.10742188 1.12939453 C-3.81913034 -0.01475123 -2.54255739 0.00270777 0 0 Z " fill="#FBC173" transform="translate(213.107421875,55.87060546875)"/>
<path d="M0 0 C3 1 3 1 3.97290039 2.54248047 C4.26156982 3.22713379 4.55023926 3.91178711 4.84765625 4.6171875 C5.19642822 5.43018311 5.5452002 6.24317871 5.90454102 7.08081055 C6.28666748 8.00289307 6.66879395 8.92497559 7.0625 9.875 C7.68692993 11.3441687 7.68692993 11.3441687 8.32397461 12.84301758 C9.58989891 15.83244254 10.84406968 18.82652835 12.09277344 21.82318115 C13.08768358 24.21038986 14.08469623 26.59671353 15.08203125 28.98291016 C15.4496608 29.86261475 15.81729034 30.74231934 16.19606018 31.64868164 C16.96815276 33.49591429 17.74040285 35.34308112 18.51280212 37.19018555 C20.45234658 41.82941187 22.38812863 46.47011491 24.31469727 51.11474609 C28.05296383 60.11023837 31.85372029 69.07656354 35.796875 77.984375 C36.15648819 78.80939011 36.51610138 79.63440521 36.88661194 80.48442078 C40.19331759 87.87516525 44.13990356 93.55789817 51.0625 97.9375 C54.35225444 99.12741118 57.61415427 100.11968011 61 101 C61.33 102.32 61.66 103.64 62 105 C58.09735181 106.26848708 54.17391861 106.15502837 50.1171875 106.16113281 C49.32633255 106.16609772 48.5354776 106.17106262 47.72065735 106.17617798 C45.10542931 106.19077413 42.49026208 106.1975998 39.875 106.203125 C38.04858398 106.20888157 36.22216797 106.21463923 34.39575195 106.22039795 C30.56249715 106.2309028 26.72926327 106.23674785 22.89599609 106.24023438 C18.01183962 106.24569707 13.12796502 106.26967939 8.24389648 106.29820633 C4.46721627 106.31694629 0.69060215 106.32204447 -3.08612061 106.32357025 C-4.88484222 106.32657523 -6.68356327 106.33452988 -8.48223877 106.34775543 C-25.86891953 106.46640093 -41.15985093 104.40010996 -54.31640625 91.94140625 C-65.78831923 79.36738809 -74.68275827 64.18143649 -84 50 C-80.14387778 45.63379173 -74.66723254 43.71088663 -69.5 41.25 C-68.44167969 40.73050781 -67.38335937 40.21101563 -66.29296875 39.67578125 C-64.77123047 38.94681641 -64.77123047 38.94681641 -63.21875 38.203125 C-62.28998047 37.75614258 -61.36121094 37.30916016 -60.40429688 36.84863281 C-58 36 -58 36 -55 37 C-55 37.66 -55 38.32 -55 39 C-54.34 39 -53.68 39 -53 39 C-51.21119617 41.36134485 -49.53382651 43.7364992 -47.875 46.1875 C-40.59402156 56.72365012 -32.84987801 66.88339365 -25 77 C-24.52369141 77.6172998 -24.04738281 78.23459961 -23.55664062 78.87060547 C-13.96298635 91.59231091 -13.96298635 91.59231091 0 98 C2.76344979 95.61779499 2.98324869 95.11961677 3.52734375 91.234375 C3.2745795 84.15697598 0.19578556 77.71982492 -2.4375 71.25 C-2.98447438 69.87388095 -3.53036415 68.49733032 -4.07519531 67.12036133 C-7.68885021 58.0353501 -11.45307329 49.01139671 -15.40795898 40.06933594 C-15.75286377 39.28719727 -16.09776855 38.50505859 -16.453125 37.69921875 C-16.90413574 36.69121216 -16.90413574 36.69121216 -17.36425781 35.6628418 C-18 34 -18 34 -18 32 C-27.57 32 -37.14 32 -47 32 C-47 31.34 -47 30.68 -47 30 C-44.71707456 28.33367498 -42.47301252 26.83594267 -40.0625 25.375 C-39.3811499 24.9612915 -38.6997998 24.54758301 -37.99780273 24.12133789 C-32.75105518 21.09663984 -29.09832792 20.03710612 -23 21 C-23.495 19.02 -23.495 19.02 -24 17 C-21.12633843 14.91481566 -18.25083111 12.8321909 -15.375 10.75 C-14.56675781 10.16347656 -13.75851562 9.57695312 -12.92578125 8.97265625 C-11.34407552 7.82816999 -9.75918396 6.68807172 -8.17089844 5.55273438 C-6.83315494 4.59591379 -5.50160215 3.63028136 -4.18066406 2.65039062 C-2.6015625 1.515625 -2.6015625 1.515625 0 0 Z " fill="#FBAD5C" transform="translate(275,193)"/>
<path d="M0 0 C0 1.32 0 2.64 0 4 C-0.66386719 4.09796875 -1.32773438 4.1959375 -2.01171875 4.296875 C-9.31702884 5.49716292 -9.31702884 5.49716292 -15 10 C-17.59371578 15.82036334 -18.44395635 20.53274743 -18.43237305 26.86035156 C-18.44256186 27.71232337 -18.45275068 28.56429518 -18.46324825 29.44208431 C-18.49336602 32.25833223 -18.50266386 35.07423692 -18.51171875 37.890625 C-18.52867977 39.89269562 -18.54688492 41.89475604 -18.56625366 43.89680481 C-18.61421714 49.24452992 -18.64391966 54.59221062 -18.66975784 59.94008255 C-18.69339016 64.34884811 -18.72786999 68.75749886 -18.76267529 73.16618824 C-19.03060173 107.10996595 -19.1357368 141.0553594 -19 175 C-25.92977018 178.04199819 -32.6544923 180.72947523 -40.0625 182.3125 C-40.79404297 182.48072266 -41.52558594 182.64894531 -42.27929688 182.82226562 C-45.24638405 183.48856843 -47.94999797 184 -51 184 C-50.99861731 182.83657609 -50.99861731 182.83657609 -50.99720669 181.64964867 C-50.97506601 162.72616894 -50.95854691 143.80269183 -50.94818783 124.87920189 C-50.94304436 115.72773141 -50.93603902 106.5762696 -50.92456055 97.42480469 C-50.91455393 89.44296342 -50.90813241 81.46112844 -50.90591151 73.47928107 C-50.9046145 69.25791178 -50.90159323 65.03656048 -50.89426994 60.81519699 C-50.88741514 56.83110085 -50.88540202 52.84702987 -50.88689232 48.86292839 C-50.8866202 47.41105576 -50.88467176 45.95918216 -50.88079453 44.50731468 C-49.78199821 25.52471619 -49.78199821 25.52471619 -56.24609375 8.4296875 C-58.58674379 6.52171887 -60.76851868 6.03366009 -63.6875 5.3125 C-64.68136719 5.06113281 -65.67523438 4.80976562 -66.69921875 4.55078125 C-67.83810547 4.27814453 -67.83810547 4.27814453 -69 4 C-69 2.68 -69 1.36 -69 0 C-61.2629467 -0.16963082 -53.52573123 -0.32924193 -45.78833008 -0.48217773 C-43.16100481 -0.53525664 -40.53372334 -0.59055492 -37.90649414 -0.64819336 C-34.1109359 -0.73106581 -30.3152872 -0.80572095 -26.51953125 -0.87890625 C-25.36169632 -0.90594131 -24.20386139 -0.93297638 -23.01094055 -0.96083069 C-15.28300985 -1.09947149 -7.69449476 -0.72449275 0 0 Z " fill="#FCB163" transform="translate(156,57)"/>
<path d="M0 0 C3.0625 1.1875 3.0625 1.1875 5.0625 4.1875 C4.9375 6.25 4.9375 6.25 4.0625 8.1875 C2.74602881 8.88687532 1.41227849 9.55479133 0.0625 10.1875 C-0.2675 11.1775 -0.5975 12.1675 -0.9375 13.1875 C-2.85895416 14.88910125 -4.77345622 16.45068534 -6.8125 18 C-7.7403833 18.71470459 -7.7403833 18.71470459 -8.68701172 19.44384766 C-10.76323927 21.03485597 -12.8494405 22.61205817 -14.9375 24.1875 C-16.02708008 25.01531982 -16.02708008 25.01531982 -17.13867188 25.85986328 C-54.14769166 53.90551032 -95.60074045 76.54021283 -138.9375 93.1875 C-139.69434082 93.48366211 -140.45118164 93.77982422 -141.23095703 94.08496094 C-162.20181278 102.27962772 -183.70471272 108.58036656 -205.9375 112.1875 C-206.88359131 112.3625708 -207.82968262 112.5376416 -208.80444336 112.71801758 C-214.40565518 113.55734824 -220.03372242 113.41399157 -225.6875 113.4375 C-226.91210938 113.458125 -228.13671875 113.47875 -229.3984375 113.5 C-240.74414672 113.54858976 -250.14328302 111.72009936 -258.9375 104.1875 C-262.25909962 99.85935504 -262.51671985 95.49520953 -262.34375 90.18359375 C-260.98064397 80.13068681 -255.50400418 72.58520724 -248.9375 65.1875 C-248.23496094 64.35347656 -247.53242188 63.51945312 -246.80859375 62.66015625 C-242.14048514 57.24047381 -237.13803836 52.66860533 -231.52734375 48.23828125 C-229.24300316 46.42941427 -227.05325961 44.55871487 -224.875 42.625 C-221.9375 40.1875 -221.9375 40.1875 -219.9375 40.1875 C-221.04902669 43.52208007 -221.77175675 44.07183075 -224.4375 46.1875 C-233.30271028 53.74993744 -242.83503685 64.60996449 -245 76.4375 C-244.92735922 80.79594655 -244.0871203 83.40713326 -241.9375 87.1875 C-235.29000723 93.00049756 -226.42216796 93.70270249 -217.9375 93.5625 C-217.02597168 93.55234863 -216.11444336 93.54219727 -215.17529297 93.53173828 C-174.78852687 92.62582751 -134.44791172 73.87415294 -98.9375 56.1875 C-97.90616943 55.67485596 -97.90616943 55.67485596 -96.85400391 55.15185547 C-69.36254703 41.35055572 -42.41863495 24.29713511 -19.33984375 3.890625 C-12.86918998 -1.65882077 -8.12450258 -1.91758446 0 0 Z " fill="#FAC376" transform="translate(298.9375,155.8125)"/>
<path d="M0 0 C-1.11152669 3.33458007 -1.83425675 3.88433075 -4.5 6 C-13.36521028 13.56243744 -22.89753685 24.42246449 -25.0625 36.25 C-24.98985922 40.60844655 -24.1496203 43.21963326 -22 47 C-14.30443463 53.65190905 -4.33593243 53.45619669 5.33984375 53.33618164 C7.36499173 53.31261646 9.38881199 53.31563914 11.4140625 53.32226562 C18.5809058 53.28362088 25.32437649 52.83865116 32.33837891 51.32885742 C35.42318201 50.94771362 37.97117812 51.36596366 41 52 C41.495 51.01 41.495 51.01 42 50 C43.98 50.495 43.98 50.495 46 51 C46.495 50.01 46.495 50.01 47 49 C47.61875 49.185625 48.2375 49.37125 48.875 49.5625 C51.04160178 50.23686176 51.04160178 50.23686176 53 49 C53.66 49.33 54.32 49.66 55 50 C54.67 49.01 54.34 48.02 54 47 C60.84936743 42.29105989 69.76943451 40.84044138 78 41 C81 43 81 43 81.8125 45.375 C82.0258178 48.36144925 81.79084967 49.61220044 80 52 C78.125 52.6875 78.125 52.6875 76 53 C75.278125 53.20625 74.55625 53.4125 73.8125 53.625 C73.214375 53.74875 72.61625 53.8725 72 54 C71.67 53.67 71.34 53.34 71 53 C70.505 53.99 70.505 53.99 70 55 C67.03 54.67 64.06 54.34 61 54 C61 53.34 61 52.68 61 52 C60.01 52.495 60.01 52.495 59 53 C59.66 53.99 60.32 54.98 61 56 C59.515 56.495 59.515 56.495 58 57 C57.566875 57.474375 57.13375 57.94875 56.6875 58.4375 C54.38984098 60.56496206 51.97249204 61.14128008 49 62 C49 61.34 49 60.68 49 60 C48.34 60 47.68 60 47 60 C47.33 60.99 47.66 61.98 48 63 C46.515 62.505 46.515 62.505 45 62 C44.01 62 43.02 62 42 62 C42 61.34 42 60.68 42 60 C40.515 60.495 40.515 60.495 39 61 C39 62.32 39 63.64 39 65 C37.35 65 35.7 65 34 65 C34 65.66 34 66.32 34 67 C31.36 67 28.72 67 26 67 C26 67.99 26 68.98 26 70 C15.16455614 72.40787641 4.60388227 73.32236111 -6.5 73.375 C-7.67981445 73.38853516 -8.85962891 73.40207031 -10.07519531 73.41601562 C-21.12641133 73.35980712 -30.44986825 71.32353057 -39 64 C-42.32159962 59.67185504 -42.57921985 55.30770953 -42.40625 49.99609375 C-41.04314397 39.94318681 -35.56650418 32.39770724 -29 25 C-28.29746094 24.16597656 -27.59492187 23.33195312 -26.87109375 22.47265625 C-22.20298514 17.05297381 -17.20053836 12.48110533 -11.58984375 8.05078125 C-9.30550316 6.24191427 -7.11575961 4.37121487 -4.9375 2.4375 C-2 0 -2 0 0 0 Z " fill="#FBA755" transform="translate(79,196)"/>
<path d="M0 0 C0 0.66 0 1.32 0 2 C0.66 2 1.32 2 2 2 C3.78879626 4.36133485 5.46629365 6.73643008 7.125 9.1875 C12.05432079 16.32606601 17.17065091 23.29424888 22.4375 30.1875 C23.11119629 31.07139404 23.78489258 31.95528809 24.47900391 32.8659668 C27.22682805 36.45365175 29.98070457 40.01537161 32.91015625 43.45703125 C34.98332394 45.97970819 35.80259066 48.00647665 37 51 C40.7087884 55.99080738 40.7087884 55.99080738 46 59 C45.125 65.875 45.125 65.875 44 67 C42.0324969 66.96665249 40.06500139 66.93226193 38.09765625 66.890625 C35.82283661 66.88720979 35.82283661 66.88720979 33.25 68.1875 C25.71869762 70.07032559 17.02913616 66.14029206 10.41796875 62.53515625 C-7.10906232 51.407332 -17.86803705 29.943558 -29 13 C-25.14387778 8.63379173 -19.66723254 6.71088663 -14.5 4.25 C-13.44167969 3.73050781 -12.38335937 3.21101562 -11.29296875 2.67578125 C-10.27847656 2.18980469 -9.26398438 1.70382813 -8.21875 1.203125 C-6.8255957 0.53265137 -6.8255957 0.53265137 -5.40429688 -0.15136719 C-3 -1 -3 -1 0 0 Z " fill="#FBB465" transform="translate(220,230)"/>
<path d="M0 0 C3.14264659 2.49637652 5.3725344 4.73915328 6.8125 8.5390625 C7.75990222 17.28600856 7.06584362 24.81257438 2.8125 32.5390625 C2.31492187 33.47492188 1.81734375 34.41078125 1.3046875 35.375 C-2.73403417 42.08115645 -2.73403417 42.08115645 -6.39453125 43.234375 C-8.79088081 43.29152814 -10.84557076 43.03972228 -13.1875 42.5390625 C-14.46625 42.2709375 -15.745 42.0028125 -17.0625 41.7265625 C-19.92770255 40.63778553 -21.34265837 39.9265046 -23.1875 37.5390625 C-22.17117008 34.99823771 -21.15437543 32.45818535 -20.1171875 29.92578125 C-17.3660052 22.88479247 -16.0149373 17.81054091 -18.0625 10.3515625 C-21.84872987 5.34037591 -27.40741156 3.06156139 -33.4921875 1.91796875 C-46.71200746 0.5624481 -59.23433039 1.78446441 -72.1875 4.5390625 C-72.1875 3.8790625 -72.1875 3.2190625 -72.1875 2.5390625 C-68.94086412 1.56908669 -65.68964982 0.61537163 -62.4375 -0.3359375 C-61.08591797 -0.74005859 -61.08591797 -0.74005859 -59.70703125 -1.15234375 C-42.01360392 -6.29724106 -16.334578 -10.90916459 0 0 Z " fill="#F89E4B" transform="translate(334.1875,92.4609375)"/>
<path d="M0 0 C1.41615561 3.77436013 0.54110264 6.00362428 -0.87109375 9.69140625 C-1.28037109 10.80193359 -1.68964844 11.91246094 -2.11132812 13.05664062 C-2.98590769 15.36867351 -3.86599737 17.6786306 -4.75195312 19.98632812 C-7.34768604 27.06448837 -9.0647704 33.42208753 -8 41 C-5.90562474 44.57789106 -3.59246664 45.23488027 0.25 46.25 C1.4875 46.4975 2.725 46.745 4 47 C4 48.32 4 49.64 4 51 C-2.25089359 51.92546529 -8.31154157 52.13221037 -14.625 52.09765625 C-16.10625366 52.09553383 -16.10625366 52.09553383 -17.61743164 52.09336853 C-20.74498636 52.08780927 -23.87246723 52.07526446 -27 52.0625 C-29.13150938 52.05747973 -31.26301988 52.05291775 -33.39453125 52.04882812 C-38.596379 52.03785322 -43.79818422 52.02115612 -49 52 C-49.33 50.35 -49.66 48.7 -50 47 C-49.2265625 46.85304688 -48.453125 46.70609375 -47.65625 46.5546875 C-38.09167638 44.49498972 -32.19450058 41.5511812 -26.5625 33.4375 C-22.67615475 26.99010696 -19.86766279 20.04077861 -17.01977539 13.08569336 C-16.6561792 12.20018799 -16.29258301 11.31468262 -15.91796875 10.40234375 C-15.59594482 9.60304443 -15.2739209 8.80374512 -14.94213867 7.98022461 C-13.51705549 4.98492798 -12.28147661 4.10682076 -9.1796875 2.9296875 C-8.08914062 2.58164063 -6.99859375 2.23359375 -5.875 1.875 C-4.23144531 1.34519531 -4.23144531 1.34519531 -2.5546875 0.8046875 C-1.71164063 0.53914062 -0.86859375 0.27359375 0 0 Z " fill="#FB9C4C" transform="translate(179,247)"/>
<path d="M0 0 C1.27272766 -0.00472824 1.27272766 -0.00472824 2.57116699 -0.009552 C3.49192017 -0.00752777 4.41267334 -0.00550354 5.36132812 -0.00341797 C6.78644714 -0.00485306 6.78644714 -0.00485306 8.24035645 -0.00631714 C10.25789455 -0.00699888 12.27543484 -0.00514502 14.29296875 -0.00097656 C17.35226517 0.00432468 20.41141158 -0.00089714 23.47070312 -0.00732422 C25.43424511 -0.00666251 27.39778701 -0.00537945 29.36132812 -0.00341797 C30.26588745 -0.0054422 31.17044678 -0.00746643 32.10241699 -0.009552 C38.08623456 0.01203653 43.95027783 0.42936705 49.89257812 1.12939453 C49.89257812 2.44939453 49.89257812 3.76939453 49.89257812 5.12939453 C49.21453125 5.27634766 48.53648437 5.42330078 47.83789062 5.57470703 C34.29270431 8.83905941 25.36978714 15.88227549 17.07617188 26.86376953 C16.35558594 27.61142578 15.635 28.35908203 14.89257812 29.12939453 C13.57257813 29.12939453 12.25257813 29.12939453 10.89257812 29.12939453 C10.23257813 29.45939453 9.57257813 29.78939453 8.89257812 30.12939453 C8.7559375 30.72365234 8.61929688 31.31791016 8.47851562 31.93017578 C7.73447734 34.72279948 6.4300388 36.16638496 4.51757812 38.31689453 C3.91171875 39.01169922 3.30585938 39.70650391 2.68164062 40.42236328 C0.89257812 42.12939453 0.89257812 42.12939453 -2.10742188 43.12939453 C-2.10742188 42.13939453 -2.10742188 41.14939453 -2.10742188 40.12939453 C-2.76742187 40.12939453 -3.42742187 40.12939453 -4.10742188 40.12939453 C-4.10742188 40.78939453 -4.10742188 41.44939453 -4.10742188 42.12939453 C-4.76742187 41.79939453 -5.42742187 41.46939453 -6.10742188 41.12939453 C-5.45581122 39.12443867 -4.78477404 37.12580092 -4.10742188 35.12939453 C-3.90117187 34.50291016 -3.69492188 33.87642578 -3.48242188 33.23095703 C-2.18704469 29.50674761 -0.70462289 26.39545365 1.51757812 23.12939453 C4.18482262 18.99028646 5.05526946 16.09148032 4.89257812 11.12939453 C2.38669813 7.56041393 0.81936653 6.35671999 -3.41992188 5.31689453 C-4.30679688 5.25501953 -5.19367188 5.19314453 -6.10742188 5.12939453 C-6.10742188 3.80939453 -6.10742188 2.48939453 -6.10742188 1.12939453 C-3.81913034 -0.01475123 -2.54255739 0.00270777 0 0 Z " fill="#FBA450" transform="translate(213.107421875,55.87060546875)"/>
<path d="M0 0 C0.495 0.99 0.495 0.99 1 2 C3.02463255 2.65213292 3.02463255 2.65213292 5 3 C5 3.66 5 4.32 5 5 C6.32 5.33 7.64 5.66 9 6 C8.01 6.99 7.02 7.98 6 9 C8.97 8.505 8.97 8.505 12 8 C10.9960141 10.58322859 10.33568593 11.79362004 7.94140625 13.265625 C7.15636719 13.59046875 6.37132812 13.9153125 5.5625 14.25 C4.78003906 14.58515625 3.99757813 14.9203125 3.19140625 15.265625 C1 16 1 16 -2 16 C-2.495 17.485 -2.495 17.485 -3 19 C-5.80859375 20.24609375 -5.80859375 20.24609375 -9.4375 21.4375 C-13.57404165 22.81332011 -17.62324111 24.23715546 -21.65234375 25.90234375 C-27.69696296 28.34860557 -33.887522 30.23724774 -40.125 32.125 C-41.25292969 32.47175781 -42.38085938 32.81851563 -43.54296875 33.17578125 C-60.47719141 38.34517554 -60.47719141 38.34517554 -66 38 C-66 37.34 -66 36.68 -66 36 C-63.36 36 -60.72 36 -58 36 C-58 35.34 -58 34.68 -58 34 C-56.35 34 -54.7 34 -53 34 C-53.33 32.68 -53.66 31.36 -54 30 C-52.68 29.67 -51.36 29.34 -50 29 C-50 29.66 -50 30.32 -50 31 C-48.68 30.34 -47.36 29.68 -46 29 C-45.505 29.99 -45.505 29.99 -45 31 C-45 30.34 -45 29.68 -45 29 C-44.01 29.33 -43.02 29.66 -42 30 C-37.10172316 29.17434306 -37.10172316 29.17434306 -33.5 26.0625 C-32.76397597 23.82334576 -32.76397597 23.82334576 -34 21 C-33.01 21 -32.02 21 -31 21 C-31 21.66 -31 22.32 -31 23 C-29.329375 22.9690625 -29.329375 22.9690625 -27.625 22.9375 C-24 23 -24 23 -22 24 C-21.505 22.515 -21.505 22.515 -21 21 C-19.35 21.33 -17.7 21.66 -16 22 C-15.67 21.34 -15.34 20.68 -15 20 C-14.01 20 -13.02 20 -12 20 C-11.09008953 17.02211118 -10.74039619 15.56502006 -12.0625 12.6875 C-14.81115322 10.29351171 -16.38698219 10.75526056 -20 11 C-22.82670714 11.54270277 -25.59530048 12.25606595 -28.375 13 C-29.11105469 13.19078125 -29.84710938 13.3815625 -30.60546875 13.578125 C-32.40533622 14.04562304 -34.20291548 14.52191576 -36 15 C-36.33 16.32 -36.66 17.64 -37 19 C-39.3125 19.625 -39.3125 19.625 -42 20 C-42.99 19.34 -43.98 18.68 -45 18 C-45.495 19.485 -45.495 19.485 -46 21 C-46.639375 20.814375 -47.27875 20.62875 -47.9375 20.4375 C-48.9584375 20.2209375 -48.9584375 20.2209375 -50 20 C-50.33 20.33 -50.66 20.66 -51 21 C-51.94875 20.979375 -52.8975 20.95875 -53.875 20.9375 C-57.16768046 20.87677434 -60.1482615 21.35193314 -63.375 22 C-68.36002976 22.97907915 -72.92860506 23.16627524 -78 23 C-78 22.67 -78 22.34 -78 22 C-77.36835937 21.88519287 -76.73671875 21.77038574 -76.0859375 21.65209961 C-53.87541041 17.55763375 -32.85954148 11.98720011 -12.01953125 3.20043945 C-11.02824219 2.7849585 -10.03695312 2.36947754 -9.015625 1.94140625 C-8.14196289 1.56701416 -7.26830078 1.19262207 -6.36816406 0.80688477 C-4 0 -4 0 0 0 Z " fill="#F9BD71" transform="translate(171,227)"/>
<path d="M0 0 C0.99 0.99 1.98 1.98 3 3 C2.09121094 3.96486328 2.09121094 3.96486328 1.1640625 4.94921875 C-3.90376887 10.41467996 -8.6134782 15.9774508 -13.1003418 21.94116211 C-16.78874391 26.80904935 -20.72543522 31.43201596 -24.74291992 36.03027344 C-27.56532071 39.27285669 -30.18133671 42.56431374 -32.6875 46.0625 C-35.88318002 50.24508121 -39.84348942 53.57981502 -45 55 C-47.26953125 54.11328125 -47.26953125 54.11328125 -49 53 C-48.57507874 51.70414084 -48.13454118 50.4133956 -47.6875 49.125 C-47.44386719 48.40570313 -47.20023438 47.68640625 -46.94921875 46.9453125 C-46 45 -46 45 -43 43 C-42.73445312 42.12859375 -42.46890625 41.2571875 -42.1953125 40.359375 C-40.59522377 35.86239362 -37.93721815 32.85710143 -34.875 29.25 C-33.69246564 27.82702457 -32.51017337 26.40384792 -31.328125 24.98046875 C-30.75513672 24.29645996 -30.18214844 23.61245117 -29.59179688 22.90771484 C-27.57026338 20.48497516 -25.59231864 18.02939365 -23.625 15.5625 C-23.01914063 14.80324219 -22.41328125 14.04398438 -21.7890625 13.26171875 C-18.83476034 9.52691318 -15.91221592 5.76767934 -13 2 C-11.60804085 6.17587745 -13.17676781 8.13474776 -15 12 C-14.67 12 -14.34 12 -14 12 C-13.34 12 -12.68 12 -12 12 C-12 12.99 -12 13.98 -12 15 C-10.88625 13.824375 -10.88625 13.824375 -9.75 12.625 C-7 10 -7 10 -4.8125 9.125 C-1.81904252 7.26699191 -1.77435862 4.27613262 -1 1 C-0.67 0.67 -0.34 0.34 0 0 Z " fill="#F8BD71" transform="translate(223,84)"/>
<path d="M0 0 C0.66 0 1.32 0 2 0 C3.296875 2.01171875 3.296875 2.01171875 4.75 4.6875 C7.3883164 9.13926538 9.42791411 12.3398773 14 15 C18.30921508 15.97304857 22.60636081 16.56324358 27 17 C27 17.66 27 18.32 27 19 C25.730447 19.64834654 24.45930294 20.29357815 23.1875 20.9375 C22.47980469 21.29714844 21.77210938 21.65679687 21.04296875 22.02734375 C19 23 19 23 16 24 C13.62752869 28.22041664 13.57756116 32.59029286 13.375 37.3125 C13.33632813 38.05306641 13.29765625 38.79363281 13.2578125 39.55664062 C13.16418295 41.37071309 13.08103149 43.18532116 13 45 C12.01 45 11.02 45 10 45 C9.63648438 44.18015625 9.27296875 43.3603125 8.8984375 42.515625 C5.22828344 34.09829311 5.22828344 34.09829311 -2 29 C-5.98087275 28.13237389 -9.9570886 27.49718652 -14 27 C-14 26.34 -14 25.68 -14 25 C-7.25 21 -7.25 21 -5 21 C-5 20.34 -5 19.68 -5 19 C-4.34 19 -3.68 19 -3 19 C-1.2100144 12.6753842 -0.45759953 6.5508985 0 0 Z " fill="#F6B86A" transform="translate(302,123)"/>
<path d="M0 0 C0 1.32 0 2.64 0 4 C-0.66386719 4.09796875 -1.32773438 4.1959375 -2.01171875 4.296875 C-9.31702884 5.49716292 -9.31702884 5.49716292 -15 10 C-18.75309732 17.5246828 -18.55314065 25.26831487 -18.6875 33.5 C-18.72072842 34.90888486 -18.75522305 36.31774045 -18.79101562 37.7265625 C-18.87310738 41.15096131 -18.94238811 44.57511644 -19 48 C-19.99 47.505 -19.99 47.505 -21 47 C-21.02497729 43.0347593 -21.0429894 39.06954995 -21.05493164 35.10424805 C-21.06235104 33.10268542 -21.07506659 31.10114467 -21.08789062 29.09960938 C-21.13412332 10.74522936 -21.13412332 10.74522936 -18 5 C-24.89358098 3.16171174 -31.40510845 2.80744486 -38.5 2.8125 C-39.39686523 2.81185547 -40.29373047 2.81121094 -41.21777344 2.81054688 C-45.76247114 2.69468986 -45.76247114 2.69468986 -50 4 C-50.90949326 8.29942266 -51.15926382 11.74936599 -50 16 C-48.68 15.67 -47.36 15.34 -46 15 C-45.67 16.65 -45.34 18.3 -45 20 C-45.99 20.33 -46.98 20.66 -48 21 C-48.33 21.99 -48.66 22.98 -49 24 C-49.33 24 -49.66 24 -50 24 C-50.268125 22.989375 -50.53625 21.97875 -50.8125 20.9375 C-52.99868235 13.12961505 -52.99868235 13.12961505 -58 7 C-60.72023023 5.99496449 -60.72023023 5.99496449 -63.6875 5.3125 C-64.68136719 5.06113281 -65.67523438 4.80976562 -66.69921875 4.55078125 C-67.83810547 4.27814453 -67.83810547 4.27814453 -69 4 C-69 2.68 -69 1.36 -69 0 C-61.2629467 -0.16963082 -53.52573123 -0.32924193 -45.78833008 -0.48217773 C-43.16100481 -0.53525664 -40.53372334 -0.59055492 -37.90649414 -0.64819336 C-34.1109359 -0.73106581 -30.3152872 -0.80572095 -26.51953125 -0.87890625 C-25.36169632 -0.90594131 -24.20386139 -0.93297638 -23.01094055 -0.96083069 C-15.28300985 -1.09947149 -7.69449476 -0.72449275 0 0 Z " fill="#EA9F5D" transform="translate(156,57)"/>
<path d="M0 0 C3 1 3 1 4.16796875 2.99609375 C4.50441406 3.80175781 4.84085937 4.60742188 5.1875 5.4375 C5.53167969 6.24058594 5.87585938 7.04367188 6.23046875 7.87109375 C7 10 7 10 7 12 C6.34 12 5.68 12 5 12 C4.6596875 10.7934375 4.6596875 10.7934375 4.3125 9.5625 C3.24642852 6.77241554 3.24642852 6.77241554 0.5 6.0625 C-0.7375 6.0315625 -0.7375 6.0315625 -2 6 C-2.66 6.66 -3.32 7.32 -4 8 C-3.01 8.33 -2.02 8.66 -1 9 C-1.33 10.65 -1.66 12.3 -2 14 C-5 15 -5 15 -7.8125 14.5 C-11.4068573 13.93617925 -13.5750426 13.70612721 -17 15 C-18.48045502 17.62822353 -19.16120301 20.06421054 -20 23 C-23.63 23.33 -27.26 23.66 -31 24 C-30.67 24.99 -30.34 25.98 -30 27 C-30.99 27 -31.98 27 -33 27 C-33 27.66 -33 28.32 -33 29 C-28.38 29 -23.76 29 -19 29 C-19 29.66 -19 30.32 -19 31 C-15.41672247 32.00217064 -15.41672247 32.00217064 -12 31 C-11.505 33.97 -11.505 33.97 -11 37 C-11.99 37 -12.98 37 -14 37 C-13.505 40.465 -13.505 40.465 -13 44 C-15 41 -15 41 -18 32 C-27.57 32 -37.14 32 -47 32 C-47 31.34 -47 30.68 -47 30 C-44.71707456 28.33367498 -42.47301252 26.83594267 -40.0625 25.375 C-39.3811499 24.9612915 -38.6997998 24.54758301 -37.99780273 24.12133789 C-32.75105518 21.09663984 -29.09832792 20.03710612 -23 21 C-23.33 19.68 -23.66 18.36 -24 17 C-21.12633843 14.91481566 -18.25083111 12.8321909 -15.375 10.75 C-14.56675781 10.16347656 -13.75851562 9.57695312 -12.92578125 8.97265625 C-11.34407552 7.82816999 -9.75918396 6.68807172 -8.17089844 5.55273438 C-6.83315494 4.59591379 -5.50160215 3.63028136 -4.18066406 2.65039062 C-2.6015625 1.515625 -2.6015625 1.515625 0 0 Z " fill="#F8C279" transform="translate(275,193)"/>
<path d="M0 0 C1.27272766 -0.00472824 1.27272766 -0.00472824 2.57116699 -0.009552 C3.49192017 -0.00752777 4.41267334 -0.00550354 5.36132812 -0.00341797 C6.78644714 -0.00485306 6.78644714 -0.00485306 8.24035645 -0.00631714 C10.25789455 -0.00699888 12.27543484 -0.00514502 14.29296875 -0.00097656 C17.35226517 0.00432468 20.41141158 -0.00089714 23.47070312 -0.00732422 C25.43424511 -0.00666251 27.39778701 -0.00537945 29.36132812 -0.00341797 C30.26588745 -0.0054422 31.17044678 -0.00746643 32.10241699 -0.009552 C38.08623456 0.01203653 43.95027783 0.42936705 49.89257812 1.12939453 C49.89257812 2.44939453 49.89257812 3.76939453 49.89257812 5.12939453 C49.21453125 5.27634766 48.53648437 5.42330078 47.83789062 5.57470703 C41.43118192 7.11870608 36.39592064 9.30079649 30.88867188 12.92236328 C28.89257812 14.12939453 28.89257812 14.12939453 26.89257812 14.12939453 C26.89257812 12.80939453 26.89257812 11.48939453 26.89257812 10.12939453 C27.55257812 10.12939453 28.21257812 10.12939453 28.89257812 10.12939453 C27.90257812 8.14939453 26.91257813 6.16939453 25.89257812 4.12939453 C23.57973357 4.26965736 21.26730222 4.41675011 18.95507812 4.56689453 C17.66730469 4.64810547 16.37953125 4.72931641 15.05273438 4.81298828 C12.03233856 4.77858641 12.03233856 4.77858641 10.89257812 6.12939453 C11.17862711 7.80482429 11.51039045 9.47324796 11.89257812 11.12939453 C10.90257812 11.45939453 9.91257813 11.78939453 8.89257812 12.12939453 C8.23257813 11.79939453 7.57257813 11.46939453 6.89257812 11.12939453 C6.89257812 9.80939453 6.89257812 8.48939453 6.89257812 7.12939453 C2.60257813 6.46939453 -1.68742188 5.80939453 -6.10742188 5.12939453 C-6.10742188 3.80939453 -6.10742188 2.48939453 -6.10742188 1.12939453 C-3.81913034 -0.01475123 -2.54255739 0.00270777 0 0 Z " fill="#F79948" transform="translate(213.107421875,55.87060546875)"/>
<path d="M0 0 C1.32856028 3.6582453 0.64879015 5.81873498 -0.65234375 9.421875 C-1.01650391 10.44667969 -1.38066406 11.47148437 -1.75585938 12.52734375 C-2.14580078 13.59082031 -2.53574219 14.65429688 -2.9375 15.75 C-3.32357422 16.82894531 -3.70964844 17.90789062 -4.10742188 19.01953125 C-5.0621254 21.68327196 -6.02660643 24.34304418 -7 27 C-7.66 27 -8.32 27 -9 27 C-9.12375 26.195625 -9.2475 25.39125 -9.375 24.5625 C-9.58125 23.716875 -9.7875 22.87125 -10 22 C-10.66 21.67 -11.32 21.34 -12 21 C-12 20.34 -12 19.68 -12 19 C-12.99 18.67 -13.98 18.34 -15 18 C-15.45375 18.969375 -15.9075 19.93875 -16.375 20.9375 C-18 24 -18 24 -20 25 C-20 26.32 -20 27.64 -20 29 C-20.66 29 -21.32 29 -22 29 C-22 29.66 -22 30.32 -22 31 C-22.66 31 -23.32 31 -24 31 C-22.65793802 25.83205985 -20.8650743 21.1854737 -18.5625 16.375 C-18.26279297 15.73304688 -17.96308594 15.09109375 -17.65429688 14.4296875 C-16.79388889 12.60808622 -15.89774711 10.80349196 -15 9 C-14.55914062 8.07058594 -14.11828125 7.14117187 -13.6640625 6.18359375 C-11.41034822 3.22625506 -9.34624411 2.71342571 -5.8125 1.6875 C-4.72582031 1.36136719 -3.63914063 1.03523437 -2.51953125 0.69921875 C-1.27236328 0.35310547 -1.27236328 0.35310547 0 0 Z " fill="#F9AD5B" transform="translate(179,247)"/>
<path d="M0 0 C2.87369124 2.59559209 4.32761777 4.18983401 5 8 C5.350625 8.825 5.70125 9.65 6.0625 10.5 C7.42692489 15.59385292 7.67821765 20.76386806 7 26 C5.48046875 28.3671875 5.48046875 28.3671875 4 30 C4.66 30.33 5.32 30.66 6 31 C6 31.66 6 32.32 6 33 C21.84 33.495 21.84 33.495 38 34 C38 34.33 38 34.66 38 35 C24.42248956 35.86635866 10.91521584 36.12680684 -2.6875 36.0625 C-4.57617066 36.05746528 -6.46484265 36.05290592 -8.35351562 36.04882812 C-12.90237766 36.03800096 -17.45117332 36.02084999 -22 36 C-21.67 35.34 -21.34 34.68 -21 34 C-16.96960118 33.06269795 -13.12580711 32.9017665 -9 33 C-7.98459888 28.89776415 -7.98459888 28.89776415 -9 25 C-9.99 24.67 -10.98 24.34 -12 24 C-13.60546875 22.37109375 -13.60546875 22.37109375 -15.1875 20.4375 C-15.71730469 19.79683594 -16.24710937 19.15617187 -16.79296875 18.49609375 C-17.19128906 18.00238281 -17.58960938 17.50867188 -18 17 C-17.67 16.34 -17.34 15.68 -17 15 C-16.1646875 15.90492188 -16.1646875 15.90492188 -15.3125 16.828125 C-10.54305386 21.82315305 -6.51340677 25.57127205 0 28 C2.15278399 27.79952703 2.15278399 27.79952703 4 27 C6.32667007 22.34665985 5.4494423 17.35932725 3.8828125 12.62109375 C2.98163152 10.3426842 2.05312226 8.07483731 1.09375 5.8203125 C0 3 0 3 0 0 Z " fill="#FCA451" transform="translate(273,263)"/>
<path d="M0 0 C1.09658936 -0.00596191 2.19317871 -0.01192383 3.32299805 -0.01806641 C8.19644511 -0.01453415 13.06859384 0.03253541 17.94140625 0.109375 C17.94140625 0.439375 17.94140625 0.769375 17.94140625 1.109375 C16.30171875 1.3259375 16.30171875 1.3259375 14.62890625 1.546875 C11.01017638 1.99225604 11.01017638 1.99225604 7.94140625 3.109375 C7.94140625 4.759375 7.94140625 6.409375 7.94140625 8.109375 C8.93140625 8.109375 9.92140625 8.109375 10.94140625 8.109375 C11.43640625 9.594375 11.43640625 9.594375 11.94140625 11.109375 C11.37292969 10.90441406 10.80445313 10.69945313 10.21875 10.48828125 C9.44660156 10.21886719 8.67445313 9.94945313 7.87890625 9.671875 C7.12480469 9.40503906 6.37070312 9.13820313 5.59375 8.86328125 C-8.8993892 4.74372917 -24.61571724 7.03797848 -39.05859375 10.109375 C-39.05859375 9.449375 -39.05859375 8.789375 -39.05859375 8.109375 C-12.13577604 0.06582378 -12.13577604 0.06582378 0 0 Z " fill="#F2A15D" transform="translate(301.05859375,86.890625)"/>
<path d="M0 0 C1.94921875 0.01953125 1.94921875 0.01953125 4 1 C5.51953125 3.51171875 5.51953125 3.51171875 6.8125 6.6875 C7.25207031 7.72261719 7.69164062 8.75773437 8.14453125 9.82421875 C9.08564232 13.31793246 8.85104257 15.51751293 8 19 C7.67 18.34 7.34 17.68 7 17 C5.35 17.66 3.7 18.32 2 19 C1.67 18.01 1.34 17.02 1 16 C0.67 16.66 0.34 17.32 0 18 C-1.84765625 18.6328125 -1.84765625 18.6328125 -4.0625 19.125 C-4.79597656 19.29257813 -5.52945313 19.46015625 -6.28515625 19.6328125 C-6.85105469 19.75398438 -7.41695312 19.87515625 -8 20 C-7.67 21.65 -7.34 23.3 -7 25 C-8.32 25.33 -9.64 25.66 -11 26 C-5.65625 5.65625 -5.65625 5.65625 0 0 Z " fill="#FAAD5D" transform="translate(231,92)"/>
<path d="M0 0 C18.15 0 36.3 0 55 0 C55 0.33 55 0.66 55 1 C54.01080566 1.02505615 53.02161133 1.0501123 52.00244141 1.07592773 C48.33840596 1.16997787 44.67456115 1.27020429 41.01074219 1.37231445 C39.42387343 1.41567241 37.83695776 1.45734687 36.25 1.49731445 C33.97121021 1.55499632 31.69265678 1.61869638 29.4140625 1.68359375 C28.34679428 1.70866249 28.34679428 1.70866249 27.25796509 1.73423767 C23.50339183 1.79721937 23.50339183 1.79721937 20 3 C19.09050674 7.29942266 18.84073618 10.74936599 20 15 C21.32 14.67 22.64 14.34 24 14 C24.33 15.65 24.66 17.3 25 19 C24.01 19.33 23.02 19.66 22 20 C21.67 20.99 21.34 21.98 21 23 C20.67 23 20.34 23 20 23 C19.731875 21.989375 19.46375 20.97875 19.1875 19.9375 C17.00508424 12.12527508 17.00508424 12.12527508 12 6 C9.15769137 5.09979668 6.30895705 4.48543935 3.3984375 3.84375 C2.60695313 3.5653125 1.81546875 3.286875 1 3 C0.67 2.01 0.34 1.02 0 0 Z " fill="#F79B4C" transform="translate(86,58)"/>
<path d="M0 0 C0.33 1.32 0.66 2.64 1 4 C0.38125 4.350625 -0.2375 4.70125 -0.875 5.0625 C-3.75554253 7.68887702 -4.15462838 10.26627537 -5 14 C-4.01 14.66 -3.02 15.32 -2 16 C-1.67 15.34 -1.34 14.68 -1 14 C0.875 12.8125 0.875 12.8125 3 12 C3.99 12.33 4.98 12.66 6 13 C1.78762713 17.79771501 -2.41283413 22.55618306 -7 27 C-6.34 24.36 -5.68 21.72 -5 19 C-8 17.66666667 -8 17.66666667 -11 19 C-11.66 18.67 -12.32 18.34 -13 18 C-13.268125 18.57621094 -13.53625 19.15242188 -13.8125 19.74609375 C-15.02862441 22.05432988 -16.40878304 23.997896 -18 26.0625 C-19.75121278 28.34345464 -21.40257851 30.60386777 -23 33 C-23.66 33 -24.32 33 -25 33 C-25 33.66 -25 34.32 -25 35 C-25.66 34.67 -26.32 34.34 -27 34 C-25.09260663 31.61575828 -23.185146 29.23157083 -21.27734375 26.84765625 C-19.85157437 25.06483313 -18.42691536 23.28112083 -17.00390625 21.49609375 C-12.67781761 16.07325024 -8.30030753 10.69636539 -3.8828125 5.34765625 C-1.90225342 2.94854152 -1.90225342 2.94854152 0 0 Z " fill="#F3C180" transform="translate(180,123)"/>
<path d="M0 0 C0.33 0 0.66 0 1 0 C2.81437549 8.14563293 3.25236851 15.85579188 3.13525391 24.18237305 C3.12579239 25.45194351 3.11633087 26.72151398 3.10658264 28.02955627 C3.0806702 31.47521108 3.04200081 34.92061325 3.00085878 38.36611533 C2.95993423 41.98016075 2.93099394 45.59430277 2.90072632 49.20845032 C2.84175165 56.03638073 2.77216023 62.86415903 2.69865549 69.6919468 C2.61542445 77.47190745 2.54417947 85.25196384 2.47388959 93.03205049 C2.32916553 109.02150948 2.16955733 125.01078388 2 141 C1.34 141 0.68 141 0 141 C0 94.47 0 47.94 0 0 Z " fill="#EDAE77" transform="translate(105,75)"/>
<path d="M0 0 C0.99 0 1.98 0 3 0 C3 21.12 3 42.24 3 64 C1.02 64.99 -0.96 65.98 -3 67 C-3.99 66.67 -4.98 66.34 -6 66 C-3.35261084 64.5393715 -2.10551666 64 1 64 C0.83701416 62.94876953 0.67402832 61.89753906 0.50610352 60.81445312 C-0.23153686 54.87689938 -0.12370673 48.94292574 -0.09765625 42.96875 C-0.0962413 41.73709106 -0.09482635 40.50543213 -0.09336853 39.2364502 C-0.08779612 35.32427484 -0.07524867 31.41215789 -0.0625 27.5 C-0.05691482 24.8385425 -0.05291916 22.17708556 -0.04882812 19.515625 C-0.03783572 13.01039693 -0.02112514 6.50520264 0 0 Z " fill="#EEB67B" transform="translate(134,168)"/>
<path d="M0 0 C0.66 0.99 1.32 1.98 2 3 C2 2.01 2 1.02 2 0 C2.99 0.33 3.98 0.66 5 1 C5 1.99 5 2.98 5 4 C5.66 4 6.32 4 7 4 C6.40049704 7.68266103 5.75241109 11.34543185 5 15 C4.34 15 3.68 15 3 15 C2.67 16.98 2.34 18.96 2 21 C1.38125 20.814375 0.7625 20.62875 0.125 20.4375 C-2.04160178 19.76313824 -2.04160178 19.76313824 -4 21 C-4.66 20.34 -5.32 19.68 -6 19 C-5.67 18.46375 -5.34 17.9275 -5 17.375 C-3.80604018 15.01576422 -3.80604018 15.01576422 -4.125 12.3125 C-3.94956849 7.66356487 -2.04959252 4.11748497 0 0 Z " fill="#F9C071" transform="translate(210,145)"/>
<path d="M0 0 C0.99 0.99 1.98 1.98 3 3 C2.32453125 3.73605469 1.6490625 4.47210938 0.953125 5.23046875 C0.05200228 6.21607173 -0.84903483 7.20175299 -1.75 8.1875 C-2.63171875 9.15042969 -3.5134375 10.11335938 -4.421875 11.10546875 C-7.00130525 13.9232627 -7.00130525 13.9232627 -9.125 16.8125 C-11 19 -11 19 -14.25 19.8125 C-15.1575 19.874375 -16.065 19.93625 -17 20 C-17.33 18.68 -17.66 17.36 -18 16 C-19.65 16.66 -21.3 17.32 -23 18 C-22.52112335 13.23735403 -20.50511358 10.77358348 -17.4375 7.1875 C-16.19806641 5.72376953 -16.19806641 5.72376953 -14.93359375 4.23046875 C-14.29550781 3.49441406 -13.65742188 2.75835937 -13 2 C-11.60804085 6.17587745 -13.17676781 8.13474776 -15 12 C-14.67 12 -14.34 12 -14 12 C-13.34 12 -12.68 12 -12 12 C-12 12.99 -12 13.98 -12 15 C-10.88625 13.824375 -10.88625 13.824375 -9.75 12.625 C-7 10 -7 10 -4.8125 9.125 C-1.81904252 7.26699191 -1.77435862 4.27613262 -1 1 C-0.67 0.67 -0.34 0.34 0 0 Z " fill="#F6B366" transform="translate(223,84)"/>
<path d="M0 0 C-1.11152669 3.33458007 -1.83425675 3.88433075 -4.5 6 C-13.0318085 13.27803019 -19.06481707 21.99415853 -24 32 C-24.66 31.67 -25.32 31.34 -26 31 C-26 30.34 -26 29.68 -26 29 C-25.34 29 -24.68 29 -24 29 C-24.66 27.68 -25.32 26.36 -26 25 C-27.98 25.99 -27.98 25.99 -30 27 C-25.32961309 19.85103056 -9.14089107 0 0 0 Z " fill="#E59158" transform="translate(79,196)"/>
<path d="M0 0 C-0.680625 0.268125 -1.36125 0.53625 -2.0625 0.8125 C-5.39710809 2.16053306 -8.69743237 3.57536298 -12 5 C-12 5.99 -12 6.98 -12 8 C-14.3125 8.625 -14.3125 8.625 -17 9 C-17.99 8.34 -18.98 7.68 -20 7 C-20.33 7.99 -20.66 8.98 -21 10 C-21.639375 9.814375 -22.27875 9.62875 -22.9375 9.4375 C-23.9584375 9.2209375 -23.9584375 9.2209375 -25 9 C-25.33 9.33 -25.66 9.66 -26 10 C-27.423125 9.9690625 -27.423125 9.9690625 -28.875 9.9375 C-32.16768046 9.87677434 -35.1482615 10.35193314 -38.375 11 C-43.36002976 11.97907915 -47.92860506 12.16627524 -53 12 C-53 11.67 -53 11.34 -53 11 C-52.36835937 10.88519287 -51.73671875 10.77038574 -51.0859375 10.65209961 C-37.6847611 8.18161977 -24.61416965 5.28513728 -11.61914062 1.14819336 C-10.2047168 0.70745483 -10.2047168 0.70745483 -8.76171875 0.2578125 C-7.93631592 -0.0088623 -7.11091309 -0.27553711 -6.26049805 -0.55029297 C-3.80191395 -1.03940755 -2.35091462 -0.79903451 0 0 Z " fill="#F1B471" transform="translate(146,238)"/>
<path d="M0 0 C0.680625 0.70125 1.36125 1.4025 2.0625 2.125 C3.03945821 3.08558461 4.01882253 4.04372551 5 5 C5.50789063 5.515625 6.01578125 6.03125 6.5390625 6.5625 C10.6970285 10.5037 14.35886554 11.99625898 19.9609375 13.1640625 C20.63382812 13.43992187 21.30671875 13.71578125 22 14 C22.7890625 16.0859375 22.7890625 16.0859375 23 18 C19.84493858 18.93619813 17.03413498 19.1057123 13.75 19.0625 C12.85796875 19.05347656 11.9659375 19.04445313 11.046875 19.03515625 C10.37140625 19.02355469 9.6959375 19.01195312 9 19 C8.67 17.68 8.34 16.36 8 15 C7.34 15 6.68 15 6 15 C6.20625 14.4225 6.4125 13.845 6.625 13.25 C7.08661261 10.48032433 6.42944945 9.35438733 5 7 C3.35 7 1.7 7 0 7 C0 4.69 0 2.38 0 0 Z " fill="#E79759" transform="translate(314,280)"/>
<path d="M0 0 C1.30081307 3.6113224 0.68476184 5.66493791 -0.65234375 9.203125 C-1.01650391 10.1828125 -1.38066406 11.1625 -1.75585938 12.171875 C-2.14580078 13.18765625 -2.53574219 14.2034375 -2.9375 15.25 C-3.32357422 16.28125 -3.70964844 17.3125 -4.10742188 18.375 C-5.06197732 20.92048119 -6.02644972 23.46173614 -7 26 C-7.33 26 -7.66 26 -8 26 C-8.33 23.69 -8.66 21.38 -9 19 C-8.01 18.67 -7.02 18.34 -6 18 C-5.87625 17.278125 -5.7525 16.55625 -5.625 15.8125 C-5 13 -5 13 -3.9375 10.375 C-2.81641673 7.9604786 -2.81641673 7.9604786 -3 5 C-5.64 5.33 -8.28 5.66 -11 6 C-12.32 9.3 -13.64 12.6 -15 16 C-14.34 16 -13.68 16 -13 16 C-13 16.66 -13 17.32 -13 18 C-13.66 18 -14.32 18 -15 18 C-15.45375 18.969375 -15.9075 19.93875 -16.375 20.9375 C-18 24 -18 24 -20 25 C-20 26.32 -20 27.64 -20 29 C-20.66 29 -21.32 29 -22 29 C-22 29.66 -22 30.32 -22 31 C-22.66 31 -23.32 31 -24 31 C-22.65793802 25.83205985 -20.8650743 21.1854737 -18.5625 16.375 C-18.26279297 15.73304688 -17.96308594 15.09109375 -17.65429688 14.4296875 C-16.79388889 12.60808622 -15.89774711 10.80349196 -15 9 C-14.55914062 8.07058594 -14.11828125 7.14117187 -13.6640625 6.18359375 C-11.41034822 3.22625506 -9.34624411 2.71342571 -5.8125 1.6875 C-4.72582031 1.36136719 -3.63914063 1.03523437 -2.51953125 0.69921875 C-1.27236328 0.35310547 -1.27236328 0.35310547 0 0 Z " fill="#E8A76C" transform="translate(179,247)"/>
<path d="M0 0 C0 0.66 0 1.32 0 2 C0.66 2 1.32 2 2 2 C3.79826445 4.25814848 5.4746801 6.51277739 7.125 8.875 C7.82689453 9.85146484 7.82689453 9.85146484 8.54296875 10.84765625 C12 15.73587828 12 15.73587828 12 18 C10.0625 17.6875 10.0625 17.6875 8 17 C7.67 16.01 7.34 15.02 7 14 C3.90131725 10.06705651 0.85162481 8.98829394 -4 8 C-4.99 8.495 -4.99 8.495 -6 9 C-6.66 8.34 -7.32 7.68 -8 7 C-8 6.01 -8 5.02 -8 4 C-9.98 4.33 -11.96 4.66 -14 5 C-11.68570179 3.45713453 -9.45428972 2.10007245 -7 0.8125 C-6.319375 0.44769531 -5.63875 0.08289063 -4.9375 -0.29296875 C-3 -1 -3 -1 0 0 Z " fill="#F6BF78" transform="translate(220,230)"/>
<path d="M0 0 C0.66 0.33 1.32 0.66 2 1 C2 2.32 2 3.64 2 5 C1.34 5 0.68 5 0 5 C0.33 5.66 0.66 6.32 1 7 C0.91255632 8.87862875 0.75824458 10.75455181 0.5625 12.625 C0.46066406 13.62789062 0.35882813 14.63078125 0.25390625 15.6640625 C0.17011719 16.43492187 0.08632813 17.20578125 0 18 C-0.66 17.01 -1.32 16.02 -2 15 C-2 15.99 -2 16.98 -2 18 C-3.98 17.67 -5.96 17.34 -8 17 C-8.99 18.32 -9.98 19.64 -11 21 C-11.66 20.67 -12.32 20.34 -13 20 C-12.505 18.515 -12.505 18.515 -12 17 C-11.34 17 -10.68 17 -10 17 C-9.87625 16.443125 -9.7525 15.88625 -9.625 15.3125 C-8.93456646 12.7578959 -8.10518316 10.40539865 -7 8 C-6.34 7.67 -5.68 7.34 -5 7 C-4.87625 6.38125 -4.7525 5.7625 -4.625 5.125 C-3.80178529 2.32606997 -2.39815356 1.54719585 0 0 Z " fill="#FB9744" transform="translate(53,220)"/>
<path d="M0 0 C0.85722656 -0.00257813 1.71445312 -0.00515625 2.59765625 -0.0078125 C4.9375 0.125 4.9375 0.125 7.9375 1.125 C9.9375 4.125 9.9375 4.125 9.8125 6.1875 C8.6788007 8.69783417 7.45131062 9.15191202 4.9375 10.125 C4.9375 10.785 4.9375 11.445 4.9375 12.125 C3.9475 11.795 2.9575 11.465 1.9375 11.125 C1.9375 8.815 1.9375 6.505 1.9375 4.125 C0.844375 4.125 -0.24875 4.125 -1.375 4.125 C-3.60416667 4.125 -5.83333333 4.125 -8.0625 4.125 C-9.75048827 5.56250191 -9.75048827 5.56250191 -11.0625 7.125 C-11.0625 3.125 -11.0625 3.125 -9.0625 1.125 C-6.02982497 0.09009146 -3.18798382 -0.00961684 0 0 Z " fill="#FBB56C" transform="translate(294.0625,155.875)"/>
<path d="M0 0 C0.33 1.32 0.66 2.64 1 4 C0.01 4.66 -0.98 5.32 -2 6 C-3.00168531 7.94832935 -3.00168531 7.94832935 -3.6875 10.125 C-3.93886719 10.84945312 -4.19023438 11.57390625 -4.44921875 12.3203125 C-4.63097656 12.87460938 -4.81273437 13.42890625 -5 14 C-5.66 14 -6.32 14 -7 14 C-8.75627984 25.9283248 -8.75627984 25.9283248 -5 37 C-1.81237635 39.12508244 0.26512223 39.5020163 4 40 C4.33 41.32 4.66 42.64 5 44 C-1.25861848 42.32085846 -6.07695124 39.6054209 -9.9375 34.375 C-12.61362132 25.87437935 -11.14403554 18.79917696 -7.51171875 10.81640625 C-5.39634365 6.87535859 -2.90466045 3.39376135 0 0 Z " fill="#E79758" transform="translate(48,223)"/>
<path d="M0 0 C0.66 0.33 1.32 0.66 2 1 C1.67 1.66 1.34 2.32 1 3 C8.26 2.67 15.52 2.34 23 2 C23 2.66 23 3.32 23 4 C26.58327753 5.00217064 26.58327753 5.00217064 30 4 C30.495 6.97 30.495 6.97 31 10 C30.01 10 29.02 10 28 10 C28.495 13.465 28.495 13.465 29 17 C27 14 27 14 24 5 C14.43 5 4.86 5 -5 5 C-5 4.34 -5 3.68 -5 3 C-2.625 1.3125 -2.625 1.3125 0 0 Z " fill="#EEBE8B" transform="translate(233,220)"/>
<path d="M0 0 C1.65125885 0.03014442 1.65125885 0.03014442 3.33587646 0.06089783 C5.10949554 0.10145042 5.10949554 0.10145042 6.91894531 0.14282227 C8.13406799 0.16643326 9.34919067 0.19004425 10.60113525 0.21437073 C14.48323383 0.29096031 18.36513057 0.37500544 22.24707031 0.45922852 C24.87857084 0.51245387 27.51008123 0.56519424 30.14160156 0.61743164 C36.59354943 0.7465692 43.04534732 0.88182878 49.49707031 1.02172852 C49.49707031 1.35172852 49.49707031 1.68172852 49.49707031 2.02172852 C35.91955988 2.88808718 22.41228615 3.14853535 8.80957031 3.08422852 C6.92089965 3.07919379 5.03222766 3.07463444 3.14355469 3.07055664 C-1.40530735 3.05972947 -5.95410301 3.04257851 -10.50292969 3.02172852 C-9.50292969 1.02172852 -9.50292969 1.02172852 -7.78436279 0.39808655 C-5.13811369 -0.03845358 -2.68266804 -0.05537618 0 0 Z " fill="#E1955E" transform="translate(261.5029296875,295.978271484375)"/>
<path d="M0 0 C0.66 0 1.32 0 2 0 C1.93039063 1.44632812 1.93039063 1.44632812 1.859375 2.921875 C1.82328125 4.18515625 1.7871875 5.4484375 1.75 6.75 C1.68039063 8.62945312 1.68039063 8.62945312 1.609375 10.546875 C1.71169207 14.02228676 1.71169207 14.02228676 3.75 16.375 C6.00806736 18.00582642 7.54239647 18.70847929 10.25 19.25 C11.4875 19.4975 12.725 19.745 14 20 C14 21.32 14 22.64 14 24 C8.60452439 24.78244934 3.45446996 25.09558857 -2 24.87890625 C-3.08172485 24.84348976 -3.08172485 24.84348976 -4.18530273 24.80735779 C-6.45711624 24.73163787 -8.72850651 24.6472284 -11 24.5625 C-12.55336567 24.50918712 -14.10675113 24.4564476 -15.66015625 24.40429688 C-19.44036502 24.2761494 -23.22022041 24.14021558 -27 24 C-27 23.67 -27 23.34 -27 23 C-14.13 23 -1.26 23 12 23 C12 22.34 12 21.68 12 21 C9.36 21 6.72 21 4 21 C3.67 20.01 3.34 19.02 3 18 C2.34 18 1.68 18 1 18 C-0.59412284 14.81175432 -0.10174735 11.37103338 -0.0625 7.875 C-0.05798828 7.12089844 -0.05347656 6.36679687 -0.04882812 5.58984375 C-0.03703499 3.72652873 -0.01909942 1.86325445 0 0 Z " fill="#E5985D" transform="translate(169,274)"/>
<path d="M0 0 C1.65 0 3.3 0 5 0 C6.63257253 3.26514506 6.39801914 6.86158612 6.62109375 10.46875 C6.76815328 13.1645758 6.76815328 13.1645758 9 15 C7.03617993 16.50559539 5.21736634 17.89131683 3 19 C2.67 19.99 2.34 20.98 2 22 C1.34 22 0.68 22 0 22 C0.33 23.32 0.66 24.64 1 26 C-0.98 26.99 -0.98 26.99 -3 28 C-3.48431873 23.35054015 -3.23942165 20.94711331 -0.5625 17.0625 C2.26690796 12.90302848 3 10.0518994 3 5 C1.72104942 2.05544266 1.72104942 2.05544266 0 0 Z " fill="#FAAB5B" transform="translate(215,62)"/>
<path d="M0 0 C0.99 0.33 1.98 0.66 3 1 C2.01 2.485 2.01 2.485 1 4 C0.69933846 6.75417318 0.49074701 9.42645147 0.375 12.1875 C0.33632813 12.93708984 0.29765625 13.68667969 0.2578125 14.45898438 C0.16371784 16.30559199 0.08077681 18.1527619 0 20 C-0.99 20 -1.98 20 -3 20 C-7.59225513 11.738041 -7.59225513 11.738041 -7 7 C-6.360625 6.71125 -5.72125 6.4225 -5.0625 6.125 C-2.84793921 5.17176549 -2.84793921 5.17176549 -2 3 C-1.34 3 -0.68 3 0 3 C0 2.01 0 1.02 0 0 Z " fill="#F2BB84" transform="translate(315,148)"/>
<path d="M0 0 C2.72675159 2.40689803 4.11966596 4.92471023 5.6875 8.1875 C6.12449219 9.08855469 6.56148437 9.98960937 7.01171875 10.91796875 C7.33785156 11.60503906 7.66398438 12.29210937 8 13 C8.33 13 8.66 13 9 13 C9.18175781 13.93972656 9.18175781 13.93972656 9.3671875 14.8984375 C9.53476563 15.71570313 9.70234375 16.53296875 9.875 17.375 C10.03742188 18.18710938 10.19984375 18.99921875 10.3671875 19.8359375 C10.86658932 22.18673923 10.86658932 22.18673923 13 24 C13.165 25.010625 13.33 26.02125 13.5 27.0625 C13.665 28.031875 13.83 29.00125 14 30 C14.66 30.33 15.32 30.66 16 31 C15.67 32.98 15.34 34.96 15 37 C12.02064431 32.53096647 10.27056167 27.58877331 8.25927734 22.62255859 C7.50746011 20.76839841 6.74790716 18.91738102 5.98828125 17.06640625 C5.50746094 15.88433594 5.02664062 14.70226562 4.53125 13.484375 C4.09361328 12.40897461 3.65597656 11.33357422 3.20507812 10.22558594 C1.94130173 6.84288462 0.94729427 3.48257025 0 0 Z " fill="#EBBC7F" transform="translate(223,141)"/>
<path d="M0 0 C1.65 0 3.3 0 5 0 C5 0.66 5 1.32 5 2 C-6.71875 7.859375 -6.71875 7.859375 -8.8515625 8.91601562 C-10.31526865 9.65452191 -11.76821913 10.41464831 -13.2109375 11.19335938 C-13.91476563 11.56783203 -14.61859375 11.94230469 -15.34375 12.328125 C-15.97474609 12.67262695 -16.60574219 13.01712891 -17.25585938 13.37207031 C-19 14 -19 14 -22 13 C-22 12.34 -22 11.68 -22 11 C-22.66 11 -23.32 11 -24 11 C-24.99 9.02 -25.98 7.04 -27 5 C-26.34 5 -25.68 5 -25 5 C-24.773125 5.804375 -24.54625 6.60875 -24.3125 7.4375 C-23.25233002 10.20258026 -23.25233002 10.20258026 -20.625 10.9375 C-17.73202148 11.00638044 -16.45691056 10.44025791 -14 9 C-13.34 9 -12.68 9 -12 9 C-12 8.34 -12 7.68 -12 7 C-11.34 7 -10.68 7 -10 7 C-9.67 6.34 -9.34 5.68 -9 5 C-7.02253397 4.26919734 -5.01927511 3.60578253 -3 3 C-2.01 2.67 -1.02 2.34 0 2 C0 1.34 0 0.68 0 0 Z " fill="#F2C488" transform="translate(195,204)"/>
<path d="M0 0 C2.88020456 2.88020456 4.07312294 6.2989031 5.6875 10 C6.18733398 11.10601562 6.18733398 11.10601562 6.69726562 12.234375 C7.52893164 14.12939778 8.27152467 16.06296531 9 18 C8.67 18.66 8.34 19.32 8 20 C5.03 20 2.06 20 -1 20 C-0.01 18.515 -0.01 18.515 1 17 C1.2037698 15.0092982 1.2037698 15.0092982 1.0625 12.9375 C1 9 1 9 2 7 C1.34 6.67 0.68 6.34 0 6 C0 4.02 0 2.04 0 0 Z " fill="#F89F4F" transform="translate(305,260)"/>
<path d="M0 0 C2.64 0.66 5.28 1.32 8 2 C-1.1875 11.74431818 -1.1875 11.74431818 -7.4375 12.3125 C-8.7059375 12.1578125 -8.7059375 12.1578125 -10 12 C-7.97714121 9.97714121 -5.958403 7.96084988 -3.875 6 C-2.06762142 4.07212952 -1.03425316 2.41325738 0 0 Z " fill="#EFBA74" transform="translate(276,177)"/>
<path d="M0 0 C0.61875 0.185625 1.2375 0.37125 1.875 0.5625 C4.04160178 1.23686176 4.04160178 1.23686176 6 0 C6 0.66 6 1.32 6 2 C7.65 1.67 9.3 1.34 11 1 C7.393346 4.99367768 2.69235217 6.89090025 -2.0625 9.25 C-2.98611328 9.72179687 -3.90972656 10.19359375 -4.86132812 10.6796875 C-5.74369141 11.12054688 -6.62605469 11.56140625 -7.53515625 12.015625 C-8.343479 12.42071289 -9.15180176 12.82580078 -9.98461914 13.24316406 C-10.64969482 13.49291992 -11.31477051 13.74267578 -12 14 C-12.66 13.67 -13.32 13.34 -14 13 C-13.67 12.01 -13.34 11.02 -13 10 C-12.05125 9.896875 -11.1025 9.79375 -10.125 9.6875 C-6.70892499 9.31460705 -6.70892499 9.31460705 -5 6 C-2.375 5.8125 -2.375 5.8125 0 6 C0 4.02 0 2.04 0 0 Z " fill="#F5C687" transform="translate(209,219)"/>
<path d="M0 0 C1.05490482 3.59615974 0.84120022 4.92017736 -0.9375 8.25 C-2.49845875 11.47279578 -3.23662447 13.72955417 -3.0625 17.3125 C-3 21 -3 21 -4.375 23.5 C-6 25 -6 25 -8 25 C-8.99 28.3 -9.98 31.6 -11 35 C-12.04628577 30.8148569 -11.98032192 30.13450431 -10.48828125 26.3671875 C-10.14216797 25.47773438 -9.79605469 24.58828125 -9.43945312 23.671875 C-9.06755859 22.74890625 -8.69566406 21.8259375 -8.3125 20.875 C-7.78366211 19.52535156 -7.78366211 19.52535156 -7.24414062 18.1484375 C-6.17484654 15.42730886 -5.0895915 12.71305857 -4 10 C-3.24341873 8.10679915 -2.48690476 6.2135714 -1.73046875 4.3203125 C-1.15381314 2.88014133 -0.57705599 1.44001079 0 0 Z " fill="#ECBE82" transform="translate(210,141)"/>
<path d="M0 0 C0.99 0 1.98 0 3 0 C3 0.66 3 1.32 3 2 C4.32 1.34 5.64 0.68 7 0 C7.33 0.66 7.66 1.32 8 2 C8 1.34 8 0.68 8 0 C8.66 0 9.32 0 10 0 C10 1.32 10 2.64 10 4 C7.1062867 4.84137043 4.21040603 5.6733036 1.3125 6.5 C0.49587891 6.73847656 -0.32074219 6.97695313 -1.16210938 7.22265625 C-5.19171125 8.36464868 -8.76504847 9.34500623 -13 9 C-13 8.34 -13 7.68 -13 7 C-10.36 7 -7.72 7 -5 7 C-5 6.34 -5 5.68 -5 5 C-3.35 5 -1.7 5 0 5 C-0.2784375 4.0409375 -0.2784375 4.0409375 -0.5625 3.0625 C-0.706875 2.381875 -0.85125 1.70125 -1 1 C-0.67 0.67 -0.34 0.34 0 0 Z " fill="#F4B06C" transform="translate(118,256)"/>
<path d="M0 0 C0 0.66 0 1.32 0 2 C-0.94875 2.391875 -1.8975 2.78375 -2.875 3.1875 C-6.08615507 4.6987093 -6.08615507 4.6987093 -7.3125 7.3125 C-8.05016496 10.1960994 -8.58872125 13.05250226 -9 16 C-11.41396234 13.10324519 -13.38617243 10.40212299 -15 7 C-12.87767021 5.82823482 -10.75242209 4.66245215 -8.625 3.5 C-7.72007812 2.99919922 -7.72007812 2.99919922 -6.796875 2.48828125 C-2.2265625 0 -2.2265625 0 0 0 Z " fill="#F7C16E" transform="translate(206,235)"/>
<path d="M0 0 C0.66 0 1.32 0 2 0 C2 6.27 2 12.54 2 19 C4.64 18.34 7.28 17.68 10 17 C13.5 16.875 13.5 16.875 16 17 C11.0419626 19.86410898 5.59013299 20.14932759 0 21 C0 14.07 0 7.14 0 0 Z " fill="#E5AC72" transform="translate(105,220)"/>
<path d="M0 0 C0.66 0.66 1.32 1.32 2 2 C1.6730244 4.61580479 1.17960932 6.64078137 0 9 C-0.99 9 -1.98 9 -3 9 C-3.66 10.65 -4.32 12.3 -5 14 C-5.66 14 -6.32 14 -7 14 C-7 12.68 -7 11.36 -7 10 C-6.34 10 -5.68 10 -5 10 C-5.33 9.401875 -5.66 8.80375 -6 8.1875 C-7 6 -7 6 -7 3 C-4.69 3 -2.38 3 0 3 C0 2.01 0 1.02 0 0 Z " fill="#F79843" transform="translate(247,56)"/>
<path d="M0 0 C-0.99 0.33 -1.98 0.66 -3 1 C-2.67 2.32 -2.34 3.64 -2 5 C-2.99 4.67 -3.98 4.34 -5 4 C-5 4.99 -5 5.98 -5 7 C-5.886875 6.979375 -6.77375 6.95875 -7.6875 6.9375 C-10.62169631 6.99286219 -13.15493696 7.3305734 -16 8 C-16 7.34 -16 6.68 -16 6 C-16.66 5.67 -17.32 5.34 -18 5 C-15.37831689 3.96983978 -12.75326119 2.95061606 -10.125 1.9375 C-9.37863281 1.64294922 -8.63226563 1.34839844 -7.86328125 1.04492188 C-2.2265625 -1.11328125 -2.2265625 -1.11328125 0 0 Z " fill="#F4BE7A" transform="translate(162,231)"/>
<path d="M0 0 C0.66 0.33 1.32 0.66 2 1 C2 2.32 2 3.64 2 5 C1.34 5 0.68 5 0 5 C0.33 5.66 0.66 6.32 1 7 C0.91255632 8.87862875 0.75824458 10.75455181 0.5625 12.625 C0.46066406 13.62789062 0.35882813 14.63078125 0.25390625 15.6640625 C0.17011719 16.43492187 0.08632813 17.20578125 0 18 C-0.33 18 -0.66 18 -1 18 C-1 15.36 -1 12.72 -1 10 C-2.65 9.67 -4.3 9.34 -6 9 C-4.83857315 4.64464931 -3.92300495 2.35380297 0 0 Z " fill="#F08D43" transform="translate(53,220)"/>
<path d="M0 0 C1.82421875 0.12890625 1.82421875 0.12890625 4 1 C5.51953125 3.65234375 5.51953125 3.65234375 6.8125 6.9375 C7.25207031 8.01902344 7.69164062 9.10054687 8.14453125 10.21484375 C9 13 9 13 8 15 C6 12 6 12 6 9 C5.01 9.33 4.02 9.66 3 10 C2.34 9.34 1.68 8.68 1 8 C0.01 8.495 0.01 8.495 -1 9 C-0.67 7.35 -0.34 5.7 0 4 C-0.66 4 -1.32 4 -2 4 C-1.34 2.68 -0.68 1.36 0 0 Z " fill="#EDA765" transform="translate(231,92)"/>
<path d="M0 0 C8.91 0 17.82 0 27 0 C27 0.66 27 1.32 27 2 C20.51291589 2.88370974 14.46080235 3.00278495 7.9375 2.5625 C6.6390918 2.48418945 6.6390918 2.48418945 5.31445312 2.40429688 C3.20920968 2.2763539 1.10453172 2.13916029 -1 2 C-0.67 1.34 -0.34 0.68 0 0 Z " fill="#EB9959" transform="translate(220,57)"/>
<path d="M0 0 C0.99 0.33 1.98 0.66 3 1 C1.59719304 3.80561393 -0.0509005 4.00680507 -2.9375 5.125 C-4.28134766 5.65480469 -4.28134766 5.65480469 -5.65234375 6.1953125 C-8 7 -8 7 -10 7 C-10 7.66 -10 8.32 -10 9 C-11.57725347 9.70133599 -13.16211333 10.385583 -14.75 11.0625 C-15.63171875 11.44535156 -16.5134375 11.82820312 -17.421875 12.22265625 C-20.22220899 13.06699938 -21.27882221 12.81180118 -24 12 C-22.85402344 11.46890625 -21.70804688 10.9378125 -20.52734375 10.390625 C-18.9973224 9.67724081 -17.4673786 8.96369027 -15.9375 8.25 C-14.80924805 7.72792969 -14.80924805 7.72792969 -13.65820312 7.1953125 C-10.0333583 5.50057985 -6.54438997 3.76016339 -3.12890625 1.671875 C-2.09636719 1.12015625 -1.06382812 0.5684375 0 0 Z " fill="#F2C78A" transform="translate(207,208)"/>
<path d="M0 0 C2.79168721 2.79168721 2.33260616 4.59976627 2.375 8.5 C2.22227064 18.44777256 -0.95621264 25.27738282 -7 33 C-8 31 -8 31 -7.25 28.5625 C-6.04638614 26.09509159 -4.90115367 24.90115367 -3 23 C-2.28552357 20.89667109 -2.28552357 20.89667109 -2 19 C-1.34 19 -0.68 19 0 19 C0 12.73 0 6.46 0 0 Z " fill="#E9A262" transform="translate(339,99)"/>
<path d="M0 0 C0.33 1.32 0.66 2.64 1 4 C-2.42094242 6.28062828 -3.68187222 6.21925007 -7.6875 6.125 C-9.17830078 6.09792969 -9.17830078 6.09792969 -10.69921875 6.0703125 C-11.45847656 6.04710937 -12.21773437 6.02390625 -13 6 C-13 6.99 -13 7.98 -13 9 C-8.545 8.505 -8.545 8.505 -4 8 C-4 8.66 -4 9.32 -4 10 C-7.3 10 -10.6 10 -14 10 C-14.33 8.35 -14.66 6.7 -15 5 C-14.16855469 4.80664062 -13.33710938 4.61328125 -12.48046875 4.4140625 C-11.39378906 4.15367187 -10.30710938 3.89328125 -9.1875 3.625 C-8.10855469 3.36976563 -7.02960938 3.11453125 -5.91796875 2.8515625 C-2.84466657 2.11267119 -2.84466657 2.11267119 0 0 Z " fill="#E4925D" transform="translate(144,289)"/>
<path d="M0 0 C-1.12200355 3.36601064 -2.00415203 4.06243251 -4.6875 6.25 C-8.58589601 9.54432023 -11.77515235 13.04956162 -15 17 C-15.33 16.34 -15.66 15.68 -16 15 C-16.66 14.67 -17.32 14.34 -18 14 C-16.2725597 12.4147483 -14.54312043 10.83177374 -12.8125 9.25 C-11.36810547 7.92742187 -11.36810547 7.92742187 -9.89453125 6.578125 C-2.50909091 0 -2.50909091 0 0 0 Z " fill="#D69E5C" transform="translate(79,196)"/>
<path d="M0 0 C2.87369124 2.59559209 4.32761777 4.18983401 5 8 C5.350625 8.825 5.70125 9.65 6.0625 10.5 C7.74587992 16.78461836 8.41913504 23.45534406 5.1875 29.25 C3 31 3 31 0 31 C0 30.34 0 29.68 0 29 C0.639375 28.71125 1.27875 28.4225 1.9375 28.125 C4.15206079 27.17176549 4.15206079 27.17176549 5 25 C5.72024789 17.67747983 3.95929229 12.55433687 1.09375 5.8203125 C0 3 0 3 0 0 Z " fill="#E7A365" transform="translate(273,263)"/>
<path d="M0 0 C1 2 1 2 0.0625 5.125 C-0.288125 6.07375 -0.63875 7.0225 -1 8 C-0.34 8 0.32 8 1 8 C1 8.66 1 9.32 1 10 C0.34 10 -0.32 10 -1 10 C-1.45375 10.969375 -1.9075 11.93875 -2.375 12.9375 C-4 16 -4 16 -6 17 C-6 18.32 -6 19.64 -6 21 C-6.66 21 -7.32 21 -8 21 C-8 21.66 -8 22.32 -8 23 C-8.66 23 -9.32 23 -10 23 C-8.61077098 17.43577218 -6.50717977 12.64549027 -3.875 7.5625 C-3.50246094 6.83095703 -3.12992188 6.09941406 -2.74609375 5.34570312 C-1.83623673 3.56098358 -0.91889137 1.78008491 0 0 Z " fill="#ECA365" transform="translate(165,255)"/>
<path d="M0 0 C3.51371286 3.51371286 4.83311051 8.44857725 6.6875 13 C7.11611328 14.02351562 7.54472656 15.04703125 7.98632812 16.1015625 C8.38658203 17.07867187 8.78683594 18.05578125 9.19921875 19.0625 C9.75355591 20.41021484 9.75355591 20.41021484 10.3190918 21.78515625 C11 24 11 24 10 26 C8.50190735 23.27531369 7.01039983 20.54753176 5.53125 17.8125 C4.445124 15.81757469 3.32711779 13.83985826 2.1875 11.875 C0.57766194 7.97749732 0.2695104 4.18205792 0 0 Z " fill="#ECAE71" transform="translate(289,222)"/>
<path d="M0 0 C3.01693943 2.85674795 5.40554531 5.82348931 7.75 9.25 C8.67039063 10.58804688 8.67039063 10.58804688 9.609375 11.953125 C10.06828125 12.62859375 10.5271875 13.3040625 11 14 C10.67 14.66 10.34 15.32 10 16 C9.34 15.67 8.68 15.34 8 15 C8 14.34 8 13.68 8 13 C6.824375 12.8453125 6.824375 12.8453125 5.625 12.6875 C3 12 3 12 1 9 C1.165 8.38125 1.33 7.7625 1.5 7.125 C2.18037435 4.23340901 1.24061817 2.62719142 0 0 Z " fill="#F6CA83" transform="translate(175,167)"/>
<path d="M0 0 C1.45372186 5.0329613 0.87241786 9.21723307 -1.4375 13.9375 C-2.2109375 14.9584375 -2.2109375 14.9584375 -3 16 C-3.66 16 -4.32 16 -5 16 C-4.67 17.65 -4.34 19.3 -4 21 C-5.32 21.33 -6.64 21.66 -8 22 C-5.92957946 14.39162534 -3.14169523 7.2271408 0 0 Z " fill="#EEA96A" transform="translate(228,96)"/>
<path d="M0 0 C0 0.33 0 0.66 0 1 C-0.96039185 1.12846313 -0.96039185 1.12846313 -1.94018555 1.25952148 C-4.85618237 1.65052115 -7.77184137 2.04398675 -10.6875 2.4375 C-11.69490234 2.57220703 -12.70230469 2.70691406 -13.74023438 2.84570312 C-14.71669922 2.97783203 -15.69316406 3.10996094 -16.69921875 3.24609375 C-17.59471436 3.36654053 -18.49020996 3.4869873 -19.4128418 3.61108398 C-21.96255933 3.99437171 -24.47643451 4.4730143 -27 5 C-27 4.34 -27 3.68 -27 3 C-17.58410262 -0.64435895 -9.99146603 -1.37813325 0 0 Z " fill="#D4A677" transform="translate(289,92)"/>
<path d="M0 0 C4.62 0.66 9.24 1.32 14 2 C14 2.66 14 3.32 14 4 C12.73581754 4.69965443 11.46334598 5.38434763 10.1875 6.0625 C9.47980469 6.44535156 8.77210938 6.82820312 8.04296875 7.22265625 C6 8 6 8 3 7 C3 5.68 3 4.36 3 3 C2.01 2.67 1.02 2.34 0 2 C0 1.34 0 0.68 0 0 Z " fill="#E8B074" transform="translate(315,138)"/>
<path d="M0 0 C-0.99 0.33 -1.98 0.66 -3 1 C-1.35 1.33 0.3 1.66 2 2 C2 2.66 2 3.32 2 4 C-3.61 3.67 -9.22 3.34 -15 3 C-15 2.34 -15 1.68 -15 1 C-13.25215171 0.63536268 -11.50159498 0.2836922 -9.75 -0.0625 C-8.28820312 -0.35833984 -8.28820312 -0.35833984 -6.796875 -0.66015625 C-4.131881 -0.98397535 -2.51128277 -0.85503199 0 0 Z " fill="#EAA163" transform="translate(294,89)"/>
<path d="M0 0 C0 0.66 0 1.32 0 2 C0.66 2.33 1.32 2.66 2 3 C1 4.5625 1 4.5625 -1 6 C-3.76614782 5.96726452 -6.26030547 5.49404328 -9 5 C-9 3.68 -9 2.36 -9 1 C-6.04335481 -0.4783226 -3.25770263 -0.06032783 0 0 Z " fill="#E99F5D" transform="translate(216,56)"/>
<path d="M0 0 C1.37478516 0.01740234 1.37478516 0.01740234 2.77734375 0.03515625 C3.69644531 0.04417969 4.61554688 0.05320313 5.5625 0.0625 C6.27277344 0.07410156 6.98304688 0.08570313 7.71484375 0.09765625 C7.71484375 1.41765625 7.71484375 2.73765625 7.71484375 4.09765625 C4.08484375 4.75765625 0.45484375 5.41765625 -3.28515625 6.09765625 C-2.62515625 5.10765625 -1.96515625 4.11765625 -1.28515625 3.09765625 C-1.94515625 2.43765625 -2.60515625 1.77765625 -3.28515625 1.09765625 C-2.28515625 0.09765625 -2.28515625 0.09765625 0 0 Z " fill="#E99A54" transform="translate(255.28515625,56.90234375)"/>
<path d="M0 0 C3.3 0 6.6 0 10 0 C10 1.32 10 2.64 10 4 C6.04 4.66 2.08 5.32 -2 6 C-2 5.34 -2 4.68 -2 4 C-1.01 3.34 -0.02 2.68 1 2 C0.67 1.34 0.34 0.68 0 0 Z " fill="#E9A365" transform="translate(146,57)"/>
<path d="M0 0 C1.65 0 3.3 0 5 0 C7.19830715 4.3966143 5.19422634 10.44070922 4 15 C2.31775566 18.01197595 0.38648954 20.51594957 -2 23 C-2 19.51924714 -1.13965731 18.23689185 0.5625 15.25 C2.89479299 10.73694719 3.53475445 8.01353121 2 3 C1.34 2.01 0.68 1.02 0 0 Z " fill="#E9A467" transform="translate(215,62)"/>
<path d="M0 0 C0.99 0.86625 1.98 1.7325 3 2.625 C9.60065644 8.38985179 9.60065644 8.38985179 17 13 C17 13.66 17 14.32 17 15 C15.25 15.75 15.25 15.75 13 16 C10.75 14.1875 10.75 14.1875 9 12 C9 11.34 9 10.68 9 10 C8.01 9.67 7.02 9.34 6 9 C4.39453125 7.44140625 4.39453125 7.44140625 2.8125 5.5625 C2.01779297 4.63630859 2.01779297 4.63630859 1.20703125 3.69140625 C0 2 0 2 0 0 Z " fill="#EBA061" transform="translate(255,278)"/>
<path d="M0 0 C0.96035156 0.15339844 1.92070313 0.30679688 2.91015625 0.46484375 C7.40603647 1.10711235 11.90451572 1.33968611 16.4375 1.5625 C17.67790039 1.62727539 17.67790039 1.62727539 18.94335938 1.69335938 C20.96209549 1.79838033 22.98102951 1.89958559 25 2 C25 2.33 25 2.66 25 3 C22.39590255 3.16781295 19.7917318 3.33429651 17.1875 3.5 C16.08051758 3.57154297 16.08051758 3.57154297 14.95117188 3.64453125 C11.96175412 3.83390613 8.99625426 4 6 4 C3.99690671 4.31421071 1.99628664 4.6451046 0 5 C0 3.35 0 1.7 0 0 Z " fill="#F0A05C" transform="translate(64,248)"/>
<path d="M0 0 C0.33 0.66 0.66 1.32 1 2 C0.34 2 -0.32 2 -1 2 C-1.66 3.65 -2.32 5.3 -3 7 C-4.32 7 -5.64 7 -7 7 C-7.639375 7.66 -8.27875 8.32 -8.9375 9 C-11 11 -11 11 -13.75 11.25 C-14.4925 11.1675 -15.235 11.085 -16 11 C-12.92486954 7.62631319 -9.71481144 5.49098038 -5.75 3.25 C-4.67234375 2.63640625 -3.5946875 2.0228125 -2.484375 1.390625 C-1.66453125 0.93171875 -0.8446875 0.4728125 0 0 Z " fill="#F4C286" transform="translate(240,189)"/>
<path d="M0 0 C2.47186455 2.96346786 3.66248361 5.54041689 4.6875 9.25 C5.06455078 10.58804688 5.06455078 10.58804688 5.44921875 11.953125 C5.63097656 12.62859375 5.81273437 13.3040625 6 14 C5.01 14.495 5.01 14.495 4 15 C4 13.68 4 12.36 4 11 C3.01 11 2.02 11 1 11 C0.67 11.66 0.34 12.32 0 13 C-0.99 13 -1.98 13 -3 13 C-2.34 11.35 -1.68 9.7 -1 8 C-0.34 8 0.32 8 1 8 C0.67 5.36 0.34 2.72 0 0 Z " fill="#F2B66F" transform="translate(283,208)"/>
<path d="M0 0 C-4.95 3.3 -9.9 6.6 -15 10 C-15.99 9.01 -16.98 8.02 -18 7 C-15.96804269 5.91145144 -14.20150212 5.04274287 -11.9375 4.5625 C-9.91237841 4.14329781 -9.91237841 4.14329781 -8.5625 2.5625 C-6.07228104 0.07228104 -3.30674739 -1.65337369 0 0 Z " fill="#F5C58D" transform="translate(256,172)"/>
<path d="M0 0 C0.66 0.33 1.32 0.66 2 1 C2 1.99 2 2.98 2 4 C1.360625 4.61875 0.72125 5.2375 0.0625 5.875 C-2.27990815 8.28839022 -2.63515416 9.7163874 -3 13 C-3.99 12.67 -4.98 12.34 -6 12 C-6.33 11.01 -6.66 10.02 -7 9 C-5.56640625 6.73828125 -5.56640625 6.73828125 -3.5625 4.3125 C-2.90378906 3.50425781 -2.24507812 2.69601563 -1.56640625 1.86328125 C-1.04949219 1.24839844 -0.53257812 0.63351563 0 0 Z " fill="#EFBB77" transform="translate(149,162)"/>
<path d="M0 0 C0.66 0 1.32 0 2 0 C3.98 3.63 5.96 7.26 8 11 C4 10 4 10 1 9 C0.67 9.66 0.34 10.32 0 11 C0 7.37 0 3.74 0 0 Z " fill="#F3B97A" transform="translate(302,123)"/>
<path d="M0 0 C2.16575619 3.24863429 3.62352411 6.60622857 5.125 10.1875 C5.40214844 10.84169922 5.67929688 11.49589844 5.96484375 12.16992188 C6.64597045 13.77879012 7.32335403 15.38924215 8 17 C7.01 17 6.02 17 5 17 C4.34 14.36 3.68 11.72 3 9 C1.68 9 0.36 9 -1 9 C-1.33 8.01 -1.66 7.02 -2 6 C-1.34 5.67 -0.68 5.34 0 5 C-0.2784375 4.0409375 -0.2784375 4.0409375 -0.5625 3.0625 C-0.7790625 2.0415625 -0.7790625 2.0415625 -1 1 C-0.67 0.67 -0.34 0.34 0 0 Z " fill="#EDB879" transform="translate(244,116)"/>
<path d="M0 0 C0.78375 0.185625 1.5675 0.37125 2.375 0.5625 C4.97089775 1.25962266 4.97089775 1.25962266 7 0 C7.33 1.98 7.66 3.96 8 6 C7.01 6 6.02 6 5 6 C5.33 8.31 5.66 10.62 6 13 C4.1727089 10.25906335 3.06301822 7.86174676 1.875 4.8125 C1.52179688 3.91144531 1.16859375 3.01039063 0.8046875 2.08203125 C0.53914063 1.39496094 0.27359375 0.70789063 0 0 Z " fill="#F6B878" transform="translate(256,224)"/>
<path d="M0 0 C0.66 0 1.32 0 2 0 C3.58108681 2.27676501 4.95977045 4.64379909 6.3671875 7.03125 C6.90601563 7.6809375 7.44484375 8.330625 8 9 C9.32 9 10.64 9 12 9 C12.6875 10.8125 12.6875 10.8125 13 13 C11.51953125 14.63671875 11.51953125 14.63671875 10 16 C8.70545435 14.08527667 7.41447056 12.16814482 6.125 10.25 C5.40570313 9.18265625 4.68640625 8.1153125 3.9453125 7.015625 C2.45492743 4.70522886 1.14800599 2.48936036 0 0 Z " fill="#EEBC7C" transform="translate(145,176)"/>
<path d="M0 0 C0.66 0 1.32 0 2 0 C0.41078475 5.36095277 -1.18972938 10.70843973 -3 16 C-3.33 16 -3.66 16 -4 16 C-3 8.57142857 -3 8.57142857 -2 5 C-2.99 5.33 -3.98 5.66 -5 6 C-5 5.01 -5 4.02 -5 3 C-3.68 3 -2.36 3 -1 3 C-0.67 2.01 -0.34 1.02 0 0 Z " fill="#EEBE7A" transform="translate(219,144)"/>
<path d="M0 0 C3 1 3 1 4.16796875 2.99609375 C4.50441406 3.80175781 4.84085937 4.60742188 5.1875 5.4375 C5.53167969 6.24058594 5.87585938 7.04367188 6.23046875 7.87109375 C7 10 7 10 7 12 C6.34 12 5.68 12 5 12 C4.7525 11.195625 4.505 10.39125 4.25 9.5625 C3.27761141 6.828919 3.27761141 6.828919 0.875 6.1875 C0.25625 6.125625 -0.3625 6.06375 -1 6 C-1.625 4.125 -1.625 4.125 -2 2 C-1.34 1.34 -0.68 0.68 0 0 Z " fill="#EFB97D" transform="translate(275,193)"/>
<path d="M0 0 C0.33 0 0.66 0 1 0 C3.59930938 9.75278066 2.80830997 19.07089512 2 29 C1.67 29 1.34 29 1 29 C0.30386731 19.31629705 -0.14973506 9.71614177 0 0 Z " fill="#ECA163" transform="translate(105,75)"/>
<path d="M0 0 C-1.485 1.98 -1.485 1.98 -3 4 C-3.7425 3.7525 -4.485 3.505 -5.25 3.25 C-6.61125 3.12625 -6.61125 3.12625 -8 3 C-10.33454661 4.83358335 -10.33454661 4.83358335 -12 7 C-12 3 -12 3 -10 1 C-6.68421778 -0.18420794 -3.49088913 -0.07933839 0 0 Z " fill="#F6B261" transform="translate(295,156)"/>
<path d="M0 0 C1.32 0 2.64 0 4 0 C3.75 2.375 3.75 2.375 3 5 C0.9375 6.3125 0.9375 6.3125 -1 7 C-1.66 6.34 -2.32 5.68 -3 5 C-1.75 2.5 -1.75 2.5 0 0 Z " fill="#ED9D59" transform="translate(59,211)"/>
<path d="M0 0 C0.99 0.33 1.98 0.66 3 1 C3 2.98 3 4.96 3 7 C2.34 7 1.68 7 1 7 C1 7.66 1 8.32 1 9 C0.01 8.67 -0.98 8.34 -2 8 C-2 5.69 -2 3.38 -2 1 C-1.34 0.67 -0.68 0.34 0 0 Z " fill="#F4AF65" transform="translate(298,159)"/>
<path d="M0 0 C-2.65945714 1.77297142 -4.995958 2.93068972 -7.9375 4.125 C-8.79214844 4.47820312 -9.64679688 4.83140625 -10.52734375 5.1953125 C-13 6 -13 6 -17 6 C-16.67 4.68 -16.34 3.36 -16 2 C-14.35 2.33 -12.7 2.66 -11 3 C-10.67 2.34 -10.34 1.68 -10 1 C-6.70581806 -0.22006738 -3.47634765 -0.0790079 0 0 Z " fill="#F1C380" transform="translate(166,246)"/>
<path d="M0 0 C0.66 0.33 1.32 0.66 2 1 C0.35 2.65 -1.3 4.3 -3 6 C-0.525 6.99 -0.525 6.99 2 8 C-0.99531539 8.99843846 -2.17255732 9.00732761 -5.1875 8.5625 C-6.445625 8.376875 -7.70375 8.19125 -9 8 C-9 7.34 -9 6.68 -9 6 C-2.25 2 -2.25 2 0 2 C0 1.34 0 0.68 0 0 Z " fill="#E8B780" transform="translate(297,142)"/>
<path d="M0 0 C0.99 0 1.98 0 3 0 C3.33 0.66 3.66 1.32 4 2 C4.66 2 5.32 2 6 2 C6.33 2.99 6.66 3.98 7 5 C7.99 5.66 8.98 6.32 10 7 C7.3125 7.3125 7.3125 7.3125 4 7 C1.125 4.5 1.125 4.5 -1 2 C-0.67 1.34 -0.34 0.68 0 0 Z " fill="#F8963F" transform="translate(42,256)"/>
<path d="M0 0 C0.99 0 1.98 0 3 0 C3 0.66 3 1.32 3 2 C4.32 2 5.64 2 7 2 C6.67 3.32 6.34 4.64 6 6 C3.69 6.33 1.38 6.66 -1 7 C-0.649375 6.401875 -0.29875 5.80375 0.0625 5.1875 C1.33304698 2.89186786 1.33304698 2.89186786 0 0 Z " fill="#F9B865" transform="translate(137,248)"/>
<path d="M0 0 C-0.33 1.32 -0.66 2.64 -1 4 C-3.3125 4.625 -3.3125 4.625 -6 5 C-6.99 4.34 -7.98 3.68 -9 3 C-8.67 2.67 -8.34 2.34 -8 2 C-8.66 1.34 -9.32 0.68 -10 0 C-6.7169902 -1.6415049 -3.57454967 -0.51888624 0 0 Z " fill="#FAAE61" transform="translate(100,250)"/>
<path d="M0 0 C1.32 0 2.64 0 4 0 C4.6875 2.75 4.6875 2.75 5 6 C3.5625 8.375 3.5625 8.375 2 10 C1.01 7.03 0.02 4.06 -1 1 C-0.67 0.67 -0.34 0.34 0 0 Z " fill="#FAB966" transform="translate(266,240)"/>
<path d="M0 0 C0.99 0.33 1.98 0.66 3 1 C3 1.66 3 2.32 3 3 C3.598125 3.020625 4.19625 3.04125 4.8125 3.0625 C7 4 7 4 8.6875 7.3125 C9.60483047 9.88976181 10.46521345 12.32606727 11 15 C7.80750523 12.03352255 5.5407013 8.95036364 3.25 5.25 C2.63640625 4.26515625 2.0228125 3.2803125 1.390625 2.265625 C0.93171875 1.51796875 0.4728125 0.7703125 0 0 Z " fill="#E8B47F" transform="translate(205,263)"/>
<path d="M0 0 C0.33 1.32 0.66 2.64 1 4 C-1.72706989 4.79539539 -4.37118364 5.1543515 -7.1875 5.4375 C-8.445625 5.623125 -9.70375 5.80875 -11 6 C-11.33 6.66 -11.66 7.32 -12 8 C-12.66 8 -13.32 8 -14 8 C-13.3828125 6.140625 -13.3828125 6.140625 -12 4 C-9.1796875 2.734375 -9.1796875 2.734375 -5.875 1.75 C-4.77929688 1.41484375 -3.68359375 1.0796875 -2.5546875 0.734375 C-1.29011719 0.37085938 -1.29011719 0.37085938 0 0 Z " fill="#EDB580" transform="translate(179,247)"/>
<path d="M0 0 C1.84765625 0.33984375 1.84765625 0.33984375 4.0625 0.9375 C5.16271484 1.22947266 5.16271484 1.22947266 6.28515625 1.52734375 C7.13400391 1.76130859 7.13400391 1.76130859 8 2 C7.67 2.66 7.34 3.32 7 4 C4.93359375 4.6328125 4.93359375 4.6328125 2.4375 5.125 C1.61121094 5.29257813 0.78492188 5.46015625 -0.06640625 5.6328125 C-0.70449219 5.75398437 -1.34257812 5.87515625 -2 6 C-1.125 1.125 -1.125 1.125 0 0 Z " fill="#F7BA6B" transform="translate(276,177)"/>
<path d="M0 0 C1.32 0.66 2.64 1.32 4 2 C3.360625 2.9075 2.72125 3.815 2.0625 4.75 C0.38571047 7.39221381 -0.53689998 8.9898499 -1 12 C-1.66 12 -2.32 12 -3 12 C-3 9.36 -3 6.72 -3 4 C-2.34 3.67 -1.68 3.34 -1 3 C-0.67 2.01 -0.34 1.02 0 0 Z " fill="#F09F59" transform="translate(139,63)"/>
<path d="M0 0 C0 0.66 0 1.32 0 2 C-4.42778844 4.74522883 -7.71862571 6.48474397 -13 7 C-13.33 7.99 -13.66 8.98 -14 10 C-14.33 9.01 -14.66 8.02 -15 7 C-12.87767021 5.82823482 -10.75242209 4.66245215 -8.625 3.5 C-7.72007812 2.99919922 -7.72007812 2.99919922 -6.796875 2.48828125 C-2.2265625 0 -2.2265625 0 0 0 Z " fill="#F2C083" transform="translate(206,235)"/>
<path d="M0 0 C0.66 0.33 1.32 0.66 2 1 C2 2.98 2 4.96 2 7 C-1.63 7 -5.26 7 -9 7 C-9 6.34 -9 5.68 -9 5 C-6.03 5 -3.06 5 0 5 C-0.33 3.68 -0.66 2.36 -1 1 C-0.67 0.67 -0.34 0.34 0 0 Z " fill="#EABB77" transform="translate(252,209)"/>
<path d="M0 0 C0.33 0 0.66 0 1 0 C1 4.62 1 9.24 1 14 C0.34 14 -0.32 14 -1 14 C-1.33 15.65 -1.66 17.3 -2 19 C-2.66 19 -3.32 19 -4 19 C-3.79503906 18.29875 -3.59007812 17.5975 -3.37890625 16.875 C-1.77632603 11.23146391 -0.55105987 5.84123457 0 0 Z " fill="#F0A766" transform="translate(318,106)"/>
<path d="M0 0 C0.48210938 0.42152344 0.96421875 0.84304687 1.4609375 1.27734375 C2.09257813 1.82519531 2.72421875 2.37304688 3.375 2.9375 C4.00148438 3.48277344 4.62796875 4.02804688 5.2734375 4.58984375 C6.95632334 6.06958624 6.95632334 6.06958624 9 7 C9 7.66 9 8.32 9 9 C3.25 8.125 3.25 8.125 1 7 C1 6.34 1 5.68 1 5 C0.34 4.34 -0.32 3.68 -1 3 C-0.67 2.01 -0.34 1.02 0 0 Z " fill="#ED9A56" transform="translate(54,240)"/>
<path d="M0 0 C1.32 0.33 2.64 0.66 4 1 C2.2126038 2.33905267 0.41995047 3.67109066 -1.375 5 C-2.37273437 5.7425 -3.37046875 6.485 -4.3984375 7.25 C-7 9 -7 9 -9 9 C-9 8.34 -9 7.68 -9 7 C-8.01 7 -7.02 7 -6 7 C-6 6.34 -6 5.68 -6 5 C-2.53846154 2 -2.53846154 2 0 2 C0 1.34 0 0.68 0 0 Z " fill="#F3C589" transform="translate(266,189)"/>
<path d="M0 0 C0.66 0 1.32 0 2 0 C2.66 3.3 3.32 6.6 4 10 C3.01 10 2.02 10 1 10 C-0.83691257 6.21812119 -1.15837626 4.05431692 0 0 Z " fill="#E3B373" transform="translate(311,158)"/>
<path d="M0 0 C2.24956302 2.24956302 3.00510965 4.06323263 4.1875 7 C4.55230469 7.886875 4.91710937 8.77375 5.29296875 9.6875 C6 12 6 12 5 14 C4.67 13.01 4.34 12.02 4 11 C3.01 11 2.02 11 1 11 C1.33 9.68 1.66 8.36 2 7 C1.34 6.67 0.68 6.34 0 6 C0 4.02 0 2.04 0 0 Z " fill="#ECA060" transform="translate(305,260)"/>
<path d="M0 0 C0.33 0.99 0.66 1.98 1 3 C-0.29296875 4.97265625 -0.29296875 4.97265625 -2.1875 7.0625 C-2.79980469 7.75472656 -3.41210938 8.44695312 -4.04296875 9.16015625 C-5.95147843 10.95438391 -7.60631797 11.9756527 -10 13 C-6.73279209 8.61105071 -3.45101522 4.24740335 0 0 Z " fill="#EEAF75" transform="translate(210,86)"/>
<path d="M0 0 C1.4540625 0.0309375 1.4540625 0.0309375 2.9375 0.0625 C1.88875002 2.68437494 1.28818687 3.85621361 -1.1875 5.3125 C-1.80625 5.56 -2.425 5.8075 -3.0625 6.0625 C-3.44468767 4.40635343 -3.77645102 2.73792976 -4.0625 1.0625 C-3.0625 0.0625 -3.0625 0.0625 0 0 Z " fill="#F0B66D" transform="translate(292.0625,168.9375)"/>
<path d="M0 0 C2.97 0.33 5.94 0.66 9 1 C9 1.99 9 2.98 9 4 C7.68 4.33 6.36 4.66 5 5 C5 4.34 5 3.68 5 3 C4.360625 2.87625 3.72125 2.7525 3.0625 2.625 C2.381875 2.41875 1.70125 2.2125 1 2 C0.67 1.34 0.34 0.68 0 0 Z " fill="#FA9949" transform="translate(326,294)"/>
<path d="M0 0 C2 3.75 2 3.75 2 6 C2.66 6.33 3.32 6.66 4 7 C3.67 8.98 3.34 10.96 3 13 C1.12396022 10.18594033 0.50907198 8.59075334 -0.1875 5.375 C-0.36667969 4.57835937 -0.54585937 3.78171875 -0.73046875 2.9609375 C-0.81941406 2.31382812 -0.90835938 1.66671875 -1 1 C-0.67 0.67 -0.34 0.34 0 0 Z " fill="#F2C484" transform="translate(235,165)"/>
<path d="M0 0 C0.33 1.32 0.66 2.64 1 4 C0.360625 4.433125 -0.27875 4.86625 -0.9375 5.3125 C-3.26746003 6.91239177 -3.26746003 6.91239177 -4 10 C-6.0625 11.1875 -6.0625 11.1875 -8 12 C-6.59023295 8.96147295 -4.91129772 6.4060405 -2.875 3.75 C-2.06675781 2.69039063 -2.06675781 2.69039063 -1.2421875 1.609375 C-0.83226562 1.07828125 -0.42234375 0.5471875 0 0 Z " fill="#EFBF84" transform="translate(180,123)"/>
<path d="M0 0 C0.33 0.66 0.66 1.32 1 2 C1.928125 1.938125 2.85625 1.87625 3.8125 1.8125 C7 2 7 2 8.875 3.5 C9.24625 3.995 9.6175 4.49 10 5 C1.42857143 4.14285714 1.42857143 4.14285714 -2 2 C-1.34 1.34 -0.68 0.68 0 0 Z " fill="#E6A667" transform="translate(239,293)"/>
<path d="M0 0 C1.76462683 3.08809695 2 4.23312136 2 8 C0.68 7.34 -0.64 6.68 -2 6 C-2 3 -2 3 0 0 Z " fill="#F59E57" transform="translate(154,278)"/>
<path d="M0 0 C0.66 0.33 1.32 0.66 2 1 C1.8125 3.375 1.8125 3.375 1 6 C-1.5625 7.3125 -1.5625 7.3125 -4 8 C-3.67 6.35 -3.34 4.7 -3 3 C-2.34 3 -1.68 3 -1 3 C-0.67 2.01 -0.34 1.02 0 0 Z " fill="#FC9845" transform="translate(52,242)"/>
<path d="M0 0 C-1.16290805 3.48872415 -2.13967609 4.09976864 -5.0625 6.1875 C-5.79597656 6.71730469 -6.52945313 7.24710938 -7.28515625 7.79296875 C-7.85105469 8.19128906 -8.41695313 8.58960938 -9 9 C-9 6 -9 6 -7.5390625 4.39453125 C-6.59160156 3.61142578 -6.59160156 3.61142578 -5.625 2.8125 C-4.68527344 2.01779297 -4.68527344 2.01779297 -3.7265625 1.20703125 C-2 0 -2 0 0 0 Z " fill="#B99370" transform="translate(79,196)"/>
<path d="M0 0 C-0.33 2.31 -0.66 4.62 -1 7 C-1.33 5.68 -1.66 4.36 -2 3 C-2.4125 3.515625 -2.825 4.03125 -3.25 4.5625 C-3.8275 5.036875 -4.405 5.51125 -5 6 C-7.109375 5.58984375 -7.109375 5.58984375 -9 5 C-7.87926138 4.16094435 -6.75325453 3.32892169 -5.625 2.5 C-4.99851562 2.0359375 -4.37203125 1.571875 -3.7265625 1.09375 C-2 0 -2 0 0 0 Z " fill="#F6C080" transform="translate(261,176)"/>
<path d="M0 0 C-2.84685749 2.31966166 -5.4763875 3.91581154 -9 5 C-9.99 4.67 -10.98 4.34 -12 4 C-9.94577945 1.94577945 -8.66990976 1.31862408 -6 0.3125 C-5.29875 0.04050781 -4.5975 -0.23148438 -3.875 -0.51171875 C-2 -1 -2 -1 0 0 Z " fill="#F1C17B" transform="translate(261,168)"/>
<path d="M0 0 C2.97 0 5.94 0 9 0 C9 1.32 9 2.64 9 4 C5.17902761 3.46930939 2.93828597 2.50298434 0 0 Z " fill="#DFA26F" transform="translate(254,57)"/>
<path d="M0 0 C1.32 0 2.64 0 4 0 C3.67 1.65 3.34 3.3 3 5 C1.68 5 0.36 5 -1 5 C-0.67 3.35 -0.34 1.7 0 0 Z " fill="#F8974C" transform="translate(321,290)"/>
<path d="M0 0 C0.99 0.33 1.98 0.66 3 1 C-1.455 3.97 -1.455 3.97 -6 7 C-6.33 6.01 -6.66 5.02 -7 4 C-5.35 3.67 -3.7 3.34 -2 3 C-2 2.34 -2 1.68 -2 1 C-1.34 0.67 -0.68 0.34 0 0 Z " fill="#F2C68A" transform="translate(254,198)"/>
<path d="M0 0 C0.66 0 1.32 0 2 0 C3.4606285 2.64738916 4 3.89448334 4 7 C2.68 6.67 1.36 6.34 0 6 C0 4.02 0 2.04 0 0 Z " fill="#E2AC6E" transform="translate(302,123)"/>
<path d="M0 0 C1.32 1.32 2.64 2.64 4 4 C3.67 4.99 3.34 5.98 3 7 C2.34 7 1.68 7 1 7 C1 6.34 1 5.68 1 5 C0.34 5 -0.32 5 -1 5 C-0.67 3.35 -0.34 1.7 0 0 Z " fill="#F6C16A" transform="translate(164,197)"/>
<path d="M0 0 C0.66 0 1.32 0 2 0 C4 3 4 3 3.75 5.125 C3 7 3 7 1 8 C0.67 5.36 0.34 2.72 0 0 Z " fill="#EFBA81" transform="translate(300,157)"/>
<path d="M0 0 C0.66 0.66 1.32 1.32 2 2 C2 1.34 2 0.68 2 0 C2.66 0 3.32 0 4 0 C4 1.32 4 2.64 4 4 C2.02 4.33 0.04 4.66 -2 5 C-1.125 1.125 -1.125 1.125 0 0 Z " fill="#F4B370" transform="translate(124,256)"/>
<path d="M0 0 C0.33 0.66 0.66 1.32 1 2 C1.66 2 2.32 2 3 2 C3 3.65 3 5.3 3 7 C2.01 7.495 2.01 7.495 1 8 C0.01 6.02 -0.98 4.04 -2 2 C-1.34 2 -0.68 2 0 2 C0 1.34 0 0.68 0 0 Z " fill="#FBC480" transform="translate(219,230)"/>
<path d="M0 0 C0.66 0 1.32 0 2 0 C4.6875 2.75 4.6875 2.75 7 6 C6.64453125 8.203125 6.64453125 8.203125 6 10 C4.99723227 8.52270825 3.99785546 7.04311423 3 5.5625 C2.443125 4.73878906 1.88625 3.91507813 1.3125 3.06640625 C0 1 0 1 0 0 Z " fill="#EEB981" transform="translate(156,192)"/>
<path d="M0 0 C2.31 0 4.62 0 7 0 C5.35 1.65 3.7 3.3 2 5 C1.67 4.67 1.34 4.34 1 4 C0.34 3.67 -0.32 3.34 -1 3 C-0.67 2.01 -0.34 1.02 0 0 Z " fill="#F4B97A" transform="translate(205,103)"/>
<path d="M0 0 C2.97 0 5.94 0 9 0 C6.4345406 2.5654594 4.52313332 2.54046087 1 3 C0.67 2.01 0.34 1.02 0 0 Z " fill="#ECA254" transform="translate(86,58)"/>
<path d="M0 0 C1.41377341 2.63904371 2.37240135 5.07120629 3 8 C1.68 7.34 0.36 6.68 -1 6 C-1 2 -1 2 0 0 Z " fill="#E8AA6F" transform="translate(313,125)"/>
<path d="M0 0 C0.99 0.33 1.98 0.66 3 1 C2.625 3.9375 2.625 3.9375 2 7 C1.01 7.495 1.01 7.495 0 8 C0 5.36 0 2.72 0 0 Z " fill="#FAA551" transform="translate(107,89)"/>
<path d="M0 0 C0.33 0.99 0.66 1.98 1 3 C0.01 3.33 -0.98 3.66 -2 4 C-2.33 4.66 -2.66 5.32 -3 6 C-3.33 4.35 -3.66 2.7 -4 1 C-2.68 0.67 -1.36 0.34 0 0 Z " fill="#FBBC6D" transform="translate(210,234)"/>
<path d="M0 0 C-0.33 1.32 -0.66 2.64 -1 4 C-3.97 3.505 -3.97 3.505 -7 3 C-2.5 0 -2.5 0 0 0 Z " fill="#F6C88F" transform="translate(183,221)"/>
<path d="M0 0 C1.32 0 2.64 0 4 0 C4 1.32 4 2.64 4 4 C2.35 3.67 0.7 3.34 -1 3 C-0.67 2.01 -0.34 1.02 0 0 Z " fill="#FCC268" transform="translate(270,202)"/>
<path d="M0 0 C0.99 0.33 1.98 0.66 3 1 C2.34 3.31 1.68 5.62 1 8 C-0.42944945 5.64561267 -1.08661261 4.51967567 -0.625 1.75 C-0.41875 1.1725 -0.2125 0.595 0 0 Z " fill="#F3C286" transform="translate(199,195)"/>
<path d="M0 0 C0 0.33 0 0.66 0 1 C-3.82320557 2.42258812 -6.91281305 3.24042276 -11 3 C-8.89427904 -1.21144191 -4.11694326 -0.07767817 0 0 Z " fill="#EE984F" transform="translate(301,88)"/>
<path d="M0 0 C0.99 0.33 1.98 0.66 3 1 C1.35 2.98 -0.3 4.96 -2 7 C-2.99 6.67 -3.98 6.34 -5 6 C-3.35 4.02 -1.7 2.04 0 0 Z " fill="#F0B271" transform="translate(231,77)"/>
<path d="M0 0 C2.97 0 5.94 0 9 0 C8.67 1.32 8.34 2.64 8 4 C5.36 3.01 2.72 2.02 0 1 C0 0.67 0 0.34 0 0 Z " fill="#EE965F" transform="translate(91,61)"/>
<path d="M0 0 C0.99 0 1.98 0 3 0 C2.67 0.99 2.34 1.98 2 3 C1.34 3 0.68 3 0 3 C0 2.01 0 1.02 0 0 Z " fill="#AD9791" transform="translate(400,256)"/>
</svg>
